<?xml version="1.0" encoding="utf-8"?><svg xmlns="http://www.w3.org/2000/svg" xmlns:xlink="http://www.w3.org/1999/xlink"><symbol viewBox="0 0 32 32" id="contacts-address"><path d="M15.999 17.96a2.91 2.91 0 0 1-2.914-2.907 2.91 2.91 0 0 1 2.914-2.906 2.91 2.91 0 0 1 2.914 2.906A2.91 2.91 0 0 1 16 17.96z"/><path fill-rule="evenodd" clip-rule="evenodd" d="M29 16c0 7.18-5.82 13-13 13S3 23.18 3 16 8.82 3 16 3s13 5.82 13 13zM15.786 9.004c-2.988.104-5.47 2.43-5.757 5.397a6.004 6.004 0 0 0 .08 1.72l.002.015.008.044c.007.03.016.074.03.128.092.412.231.812.404 1.187.601 1.421 1.992 3.799 5.113 6.385.191.16.472.16.666 0 3.12-2.583 4.512-4.96 5.116-6.388a5.735 5.735 0 0 0 .444-1.375c.071-.369.108-.747.108-1.134 0-3.377-2.803-6.1-6.214-5.98z"/><path fill-rule="evenodd" clip-rule="evenodd" d="M32 16c0 8.837-7.163 16-16 16S0 24.837 0 16 7.163 0 16 0s16 7.163 16 16zm-1 0c0 8.284-6.716 15-15 15-8.284 0-15-6.716-15-15C1 7.716 7.716 1 16 1c8.284 0 15 6.716 15 15z"/></symbol><symbol viewBox="0 0 32 32" id="contacts-clock"><path d="M16 16.387h2.605a.387.387 0 1 0 0-.775h-2.218v-3.361a.388.388 0 1 0-.775 0V16c0 .214.174.387.388.387z"/><path fill-rule="evenodd" clip-rule="evenodd" d="M9.322 16A6.686 6.686 0 0 0 16 22.678 6.686 6.686 0 0 0 22.678 16 6.686 6.686 0 0 0 16 9.322 6.686 6.686 0 0 0 9.322 16zm11.77 0c0 .214.174.387.388.387h.41a5.878 5.878 0 0 1-1.447 3.495l-.304-.305a.387.387 0 1 0-.548.548l.305.305a5.878 5.878 0 0 1-3.509 1.46v-.457a.388.388 0 1 0-.775 0v.457a5.88 5.88 0 0 1-3.519-1.469l.33-.33a.387.387 0 1 0-.549-.547l-.327.327a5.878 5.878 0 0 1-1.437-3.483h.457a.388.388 0 1 0 0-.776h-.457a5.88 5.88 0 0 1 1.46-3.508l.304.304a.386.386 0 0 0 .548 0 .387.387 0 0 0 0-.548l-.304-.304a5.88 5.88 0 0 1 3.494-1.446v.41a.388.388 0 0 0 .775 0v-.41a5.877 5.877 0 0 1 3.484 1.437l-.28.28a.387.387 0 1 0 .548.548l.282-.282a5.879 5.879 0 0 1 1.469 3.52h-.41a.388.388 0 0 0-.387.387z"/><path fill-rule="evenodd" clip-rule="evenodd" d="M29 16c0 7.18-5.82 13-13 13S3 23.18 3 16 8.82 3 16 3s13 5.82 13 13zM16 8c-4.411 0-8 3.589-8 8s3.589 8 8 8 8-3.589 8-8-3.589-8-8-8z"/><path fill-rule="evenodd" clip-rule="evenodd" d="M32 16c0 8.837-7.163 16-16 16S0 24.837 0 16 7.163 0 16 0s16 7.163 16 16zm-1 0c0 8.284-6.716 15-15 15-8.284 0-15-6.716-15-15C1 7.716 7.716 1 16 1c8.284 0 15 6.716 15 15z"/></symbol><symbol viewBox="0 0 32 32" id="contacts-email"><path fill-rule="evenodd" clip-rule="evenodd" d="M29 16c0 7.18-5.82 13-13 13S3 23.18 3 16 8.82 3 16 3s13 5.82 13 13zm-6.429-6H9.43c-.458 0-.81.148-1.058.443-.247.296-.37.665-.37 1.108 0 .358.163.746.49 1.164a4.34 4.34 0 0 0 1.045.984c.203.136.813.541 1.83 1.214a642.317 642.317 0 0 1 2.34 1.556l.133.09.246.17c.194.133.354.241.482.324l.079.05a8.475 8.475 0 0 0 .386.227 3.109 3.109 0 0 0 .513.23c.161.05.31.077.447.077h.017a1.648 1.648 0 0 0 .446-.077 2.78 2.78 0 0 0 .514-.23 9.575 9.575 0 0 0 .681-.42l.266-.181.246-.17.075-.05.058-.04 4.179-2.77c.434-.29.797-.64 1.089-1.048.291-.41.437-.838.437-1.287a1.28 1.28 0 0 0-.424-.964 1.415 1.415 0 0 0-1.005-.4zm-13.67 4.61A4.675 4.675 0 0 1 8 13.87v6.583l3.995-3.814a301.072 301.072 0 0 0-3.093-2.028zM22.572 22c.36 0 .671-.113.936-.337l-4.533-4.328-.112.077-.202.139c-.339.238-.614.425-.826.558a5.18 5.18 0 0 1-.843.41 2.684 2.684 0 0 1-.982.208h-.018c-.304 0-.631-.07-.982-.209a5.162 5.162 0 0 1-.844-.41l-.1-.062-.089-.059-.07-.047a19.35 19.35 0 0 1-.567-.39l-.313-.216-4.534 4.329c.265.224.577.337.937.337h13.14zm-2.565-5.36a295.76 295.76 0 0 1 3.1-2.03c.34-.22.637-.468.893-.74v6.583l-3.993-3.812z"/><path fill-rule="evenodd" clip-rule="evenodd" d="M32 16c0 8.837-7.163 16-16 16S0 24.837 0 16 7.163 0 16 0s16 7.163 16 16zm-1 0c0 8.284-6.716 15-15 15-8.284 0-15-6.716-15-15C1 7.716 7.716 1 16 1c8.284 0 15 6.716 15 15z"/></symbol><symbol viewBox="0 0 92 92" id="contacts-reserv"><path fill-rule="evenodd" clip-rule="evenodd" d="M46 89.125c23.817 0 43.125-19.308 43.125-43.125S69.817 2.875 46 2.875 2.875 22.183 2.875 46 22.183 89.125 46 89.125zM46 92c25.405 0 46-20.595 46-46S71.405 0 46 0 0 20.595 0 46s20.595 46 46 46z"/><path d="M29.494 46.806c2.322-6.515 8.346-11.019 15.338-11.475a1.24 1.24 0 0 0 1.166-1.313c-.049-.68-.668-1.19-1.33-1.149-7.996.52-14.879 5.669-17.533 13.118a1.233 1.233 0 0 0 .765 1.574 1.253 1.253 0 0 0 1.595-.755z"/><path fill-rule="evenodd" clip-rule="evenodd" d="M46 83.375c20.643 0 37.375-16.733 37.375-37.375S66.643 8.625 46 8.625 8.625 25.358 8.625 46 25.357 83.375 46 83.375zm3.71-56.148c-.048.337-.145.66-.282.963 11.322 1.537 20.27 10.54 21.418 21.943H21.152c1.149-11.408 10.092-20.406 21.42-21.943a3.513 3.513 0 0 1-.299-1.091 3.363 3.363 0 0 1-.023-.399c0-2.04 1.682-3.7 3.75-3.7s3.75 1.66 3.75 3.7c0 .179-.014.355-.04.527zM74.75 52.6c.432 0 .834.222 1.064.585.229.365.247.816.055 1.2C74.11 57.85 70.582 60 66.66 60H25.34c-3.926 0-7.453-2.151-9.207-5.617a1.184 1.184 0 0 1-.131-.5v-.107a1.215 1.215 0 0 1 .186-.591 1.253 1.253 0 0 1 1.062-.585h57.5z"/></symbol><symbol viewBox="0 0 32 32" id="contacts-tel"><path fill-rule="evenodd" clip-rule="evenodd" d="M29 16c0 7.18-5.82 13-13 13S3 23.18 3 16 8.82 3 16 3s13 5.82 13 13zm-8.226 5.894c-.398.451-3.267 3.278-7.589-3.304-4.555-6.94-1.824-8.84-.639-9.31l.057-.021.094-.034.04-.013c.167-.054.273-.071.273-.071l-.001.008c.785-.135 1.521.17 1.662.843l.248 1.53c.168.803-.482 1.768-1.452 2.156l-.079.031c.514 1.744 1.55 3.752 3.582 5.579l.15-.127c.79-.674 1.963-.808 2.62-.3l1.155.983c.641.496.617 1.38-.12 2.05z"/><path fill-rule="evenodd" clip-rule="evenodd" d="M32 16c0 8.837-7.163 16-16 16S0 24.837 0 16 7.163 0 16 0s16 7.163 16 16zm-1 0c0 8.284-6.716 15-15 15-8.284 0-15-6.716-15-15C1 7.716 7.716 1 16 1c8.284 0 15 6.716 15 15z"/></symbol><symbol viewBox="0 0 139.4 44.7" id="dorohovdesign"><path d="M52.2 19.5V8.1H57c3.6 0 6.1 2.1 6.1 5.7 0 3.5-2.6 5.7-6.1 5.7h-4.8zm7.9-5.7c0-1.8-1.1-3.1-3.1-3.1h-1.9v6.2H57c2 0 3.1-1.4 3.1-3.1m4.1 0c0-3.4 2.6-5.9 6.1-5.9 3.5 0 6.1 2.4 6.1 5.9 0 3.5-2.6 5.9-6.1 5.9-3.5 0-6.1-2.4-6.1-5.9m9.2 0c0-1.9-1.2-3.3-3.1-3.3-1.9 0-3.1 1.4-3.1 3.3 0 1.8 1.2 3.3 3.1 3.3 1.9 0 3.1-1.4 3.1-3.3m11 5.7l-1.9-3.8H81v3.8h-2.9V8.1h5.7c2.5 0 3.9 1.7 3.9 3.8 0 2-1.2 3-2.3 3.4l2.3 4.2h-3.3zm.3-7.6c0-.8-.6-1.2-1.4-1.2H81v2.4h2.3c.8 0 1.4-.4 1.4-1.2m4.2 1.9c0-3.4 2.6-5.9 6.1-5.9 3.5 0 6.1 2.4 6.1 5.9 0 3.5-2.6 5.9-6.1 5.9-3.5 0-6.1-2.4-6.1-5.9m9.1 0c0-1.9-1.2-3.3-3.1-3.3-1.9 0-3.1 1.4-3.1 3.3 0 1.8 1.2 3.3 3.1 3.3 1.9 0 3.1-1.4 3.1-3.3m12.4 5.7v-4.6h-4.7v4.6h-3V8.1h3v4.3h4.7V8.1h2.9v11.4zm4.6-5.7c0-3.4 2.6-5.9 6.1-5.9 3.5 0 6.1 2.4 6.1 5.9 0 3.5-2.6 5.9-6.1 5.9-3.5 0-6.1-2.4-6.1-5.9m9.2 0c0-1.9-1.2-3.3-3.1-3.3-1.9 0-3.1 1.4-3.1 3.3 0 1.8 1.2 3.3 3.1 3.3 1.9 0 3.1-1.4 3.1-3.3m7.3 5.7l-4.3-11.4h3.3l2.8 8.2 2.8-8.2h3.3l-4.2 11.4zm-79.3 17V25.1H57c3.6 0 6.1 2.1 6.1 5.7 0 3.5-2.6 5.7-6.1 5.7h-4.8zm7.9-5.7c0-1.8-1.1-3.1-3.1-3.1h-1.9v6.2H57c2 0 3.1-1.4 3.1-3.1m4.7 5.7V25.1h8.3v2.6h-5.3v1.8H73V32h-5.2v1.9h5.3v2.6zm9.6-1.6l1.5-2.2c.8.8 2.1 1.5 3.6 1.5 1 0 1.6-.4 1.6-.9 0-1.5-6.4-.3-6.4-4.7 0-1.9 1.6-3.6 4.5-3.6 1.8 0 3.4.5 4.6 1.6l-1.6 2.1c-1-.8-2.2-1.2-3.3-1.2-.8 0-1.2.3-1.2.8 0 1.4 6.4.4 6.4 4.6 0 2.3-1.7 3.8-4.7 3.8-2.2 0-3.8-.7-5-1.8m11.5-9.8h2.9v11.3h-2.9zm4.7 5.7c0-3.6 2.8-5.9 6.1-5.9 2.5 0 4.1 1.3 4.8 2.8L99.1 29c-.4-.7-1.3-1.4-2.4-1.4-1.9 0-3.2 1.4-3.2 3.3s1.3 3.3 3.2 3.3c.8 0 1.7-.3 2.1-.7v-.9h-2.6V30h5.5v4.5c-1.2 1.3-2.9 2.2-5 2.2-3.4 0-6.1-2.3-6.1-5.9m20.9 5.7l-4.8-6.6v6.6h-2.9V25.1h3l4.6 6.3v-6.3h2.9v11.4zM17.7 0H0v44.7h17.8c15 0 24.6-8.8 24.6-22.4C42.4 8.7 32.7 0 17.7 0m-.4 35.7h-8V9.5h8c9.3 0 15.7 3.7 15.7 12.7.1 7.5-5.8 13.5-15.7 13.5"/><path d="M19.1 17H17v10.6h2c4 0 6.4-2.4 6.4-5.4 0-3.7-2.6-5.2-6.3-5.2"/></symbol><symbol viewBox="0 0 96.124 96.123" id="fb"><path d="M72.089.02L59.624 0C45.62 0 36.57 9.285 36.57 23.656v10.907H24.037a1.96 1.96 0 0 0-1.96 1.961v15.803a1.96 1.96 0 0 0 1.96 1.96H36.57v39.876a1.96 1.96 0 0 0 1.96 1.96h16.352a1.96 1.96 0 0 0 1.96-1.96V54.287h14.654a1.96 1.96 0 0 0 1.96-1.96l.006-15.803a1.963 1.963 0 0 0-1.961-1.961H56.842v-9.246c0-4.444 1.059-6.7 6.848-6.7l8.397-.003a1.96 1.96 0 0 0 1.959-1.96V1.98A1.96 1.96 0 0 0 72.089.02z"/></symbol><symbol viewBox="0 0 17 17" id="form-email"><path d="M8.5 0C3.813 0 0 3.813 0 8.5 0 13.187 3.813 17 8.5 17c2.27 0 4.405-.884 6.01-2.49a.354.354 0 1 0-.5-.5 7.74 7.74 0 0 1-5.51 2.282C4.204 16.292.708 12.796.708 8.5.708 4.204 4.204.708 8.5.708c4.296 0 7.792 3.496 7.792 7.792v.708a2.127 2.127 0 0 1-2.125 2.125 2.127 2.127 0 0 1-2.125-2.125V6.021a.354.354 0 1 0-.709 0v.376A3.528 3.528 0 0 0 8.5 4.958 3.546 3.546 0 0 0 4.958 8.5 3.546 3.546 0 0 0 8.5 12.042a3.53 3.53 0 0 0 3.046-1.765 2.835 2.835 0 0 0 2.62 1.765A2.837 2.837 0 0 0 17 9.208V8.5C17 3.813 13.187 0 8.5 0zm0 11.333A2.837 2.837 0 0 1 5.667 8.5 2.837 2.837 0 0 1 8.5 5.667 2.837 2.837 0 0 1 11.333 8.5 2.836 2.836 0 0 1 8.5 11.333z"/></symbol><symbol viewBox="0 0 17 17" id="form-name"><path d="M14.671 14.234l2.004-1.002-5.451-2.008 2.008 5.451 1.002-2.003 2.101 2.1a.308.308 0 1 0 .437-.436l-2.1-2.102zm-2.404-1.967l2.854 1.052-1.202.6-.6 1.202-1.052-2.854z"/><path d="M8.5 0C3.813 0 0 3.813 0 8.5a8.479 8.479 0 0 0 2.759 6.262l-.008.007.276.232.055.043c.146.12.298.236.452.348a8.674 8.674 0 0 0 1.354.8l.044.02a8.424 8.424 0 0 0 2.792.75l.083.007c.229.019.46.031.693.031a.309.309 0 1 0 0-.618c-.196 0-.391-.01-.586-.024l-.1-.008a8.004 8.004 0 0 1-.585-.072l-.026-.005a7.847 7.847 0 0 1-1.202-.3l-.036-.012a7.869 7.869 0 0 1-.576-.22l-.004-.002a8.109 8.109 0 0 1-.527-.253l-.068-.035a7.956 7.956 0 0 1-1.013-.645l-.04-.032.029-.017 2.444-1.333c.42-.23.681-.67.681-1.148v-1.113l-.07-.086a5.16 5.16 0 0 1-.928-1.921l-.029-.123-.105-.068a.512.512 0 0 1-.238-.43V7.439c0-.144.061-.278.172-.378l.102-.092V5.247l-.002-.04c-.001-.008-.092-.751.431-1.348.447-.51 1.213-.768 2.276-.768 1.059 0 1.822.256 2.27.762.524.59.438 1.348.437 1.354l-.003 1.762.102.092c.112.1.173.235.173.379v1.095c0 .22-.15.42-.365.487a.309.309 0 0 0 .182.59c.48-.147.8-.58.8-1.077V7.44c0-.268-.097-.528-.273-.733V5.265c.016-.161.073-1.066-.582-1.813-.57-.65-1.492-.98-2.741-.98s-2.171.33-2.74.98c-.656.747-.599 1.652-.583 1.812v1.443a1.126 1.126 0 0 0-.274.732v1.096c0 .34.153.658.414.872.25.98.766 1.723.956 1.975v.894a.69.69 0 0 1-.359.605L3.47 14.214a2.23 2.23 0 0 0-.232.148A7.863 7.863 0 0 1 .618 8.5C.618 4.154 4.154.618 8.5.618s7.882 3.536 7.882 7.882a.309.309 0 1 0 .618 0C17 3.813 13.187 0 8.5 0z"/></symbol><symbol viewBox="0 0 17 17" id="form-tel"><path d="M16.554 13.115l-.66-.44A8.46 8.46 0 0 0 8.534.035a.283.283 0 1 0 0 .567 7.892 7.892 0 0 1 6.886 11.757l-2.308-1.539a1.005 1.005 0 0 0-1.345.219l-1.001 1.288a.429.429 0 0 1-.55.116l-.19-.105c-.632-.345-1.418-.774-3.003-2.359C5.44 8.394 5.01 7.607 4.664 6.976l-.104-.19a.429.429 0 0 1 .113-.552l1.288-1.002c.412-.323.507-.908.219-1.345L3.885.447A1 1 0 0 0 2.538.142L1.1 1.007A2.03 2.03 0 0 0 .174 2.21c-.518 1.888-.128 5.146 4.671 9.946 2.09 2.091 3.888 3.343 5.408 4.052A7.879 7.879 0 0 1 .638 8.5a.283.283 0 1 0-.566 0 8.473 8.473 0 0 0 8.462 8.465 8.39 8.39 0 0 0 2.578-.406c.75.28 1.545.43 2.347.44.45.002.897-.057 1.332-.174a2.027 2.027 0 0 0 1.2-.926l.866-1.438a1 1 0 0 0-.303-1.347zm-.184 1.056l-.863 1.439a1.462 1.462 0 0 1-.866.67c-.824.227-1.94.255-3.374-.262a.281.281 0 0 0-.073-.028c-1.586-.59-3.556-1.844-5.949-4.237C.64 7.147.242 4.102.72 2.358c.104-.364.344-.674.671-.865L2.83.63a.433.433 0 0 1 .584.131l1.247 1.872 1.046 1.57a.436.436 0 0 1-.095.583L4.324 5.788a.992.992 0 0 0-.262 1.273l.102.185c.362.664.812 1.49 2.456 3.134 1.643 1.643 2.469 2.093 3.132 2.455l.187.103a.99.99 0 0 0 1.272-.263l1.002-1.288a.436.436 0 0 1 .584-.095l3.44 2.295a.433.433 0 0 1 .133.584z"/></symbol><symbol viewBox="0 0 16 14" id="icon-down"><path fill-rule="evenodd" clip-rule="evenodd" d="M7.93 11l5.196-9H2.734l5.196 9zm-.866 2.5a1 1 0 0 0 1.732 0l6.928-12a1 1 0 0 0-.866-1.5H1a1 1 0 0 0-.866 1.5l6.929 12z"/></symbol><symbol viewBox="0 0 14 16" id="icon-next"><path fill-rule="evenodd" clip-rule="evenodd" d="M11 7.93L2 2.734v10.392l9-5.196zm2.5.866a1 1 0 0 0 0-1.732L1.5.135a1 1 0 0 0-1.5.866v13.857a1 1 0 0 0 1.5.866l12-6.928z"/></symbol><symbol viewBox="0 0 14 16" id="icon-prev"><path fill-rule="evenodd" clip-rule="evenodd" d="M3 8l9 5.196V2.804L3 8zM.5 7.134a1 1 0 0 0 0 1.732l12 6.928a1 1 0 0 0 1.5-.866V1.072a1 1 0 0 0-1.5-.866L.5 7.134z"/></symbol><symbol viewBox="0 0 16 17" id="icon-search"><path d="M15.757 15.484l-3.944-4.208a6.949 6.949 0 0 0 1.57-4.412C13.382 3.079 10.38 0 6.69 0 3.001 0 0 3.08 0 6.864s3.002 6.863 6.691 6.863a6.505 6.505 0 0 0 3.834-1.242l3.974 4.24a.856.856 0 0 0 1.234.025.913.913 0 0 0 .024-1.266zM6.69 1.791c2.727 0 4.946 2.275 4.946 5.073 0 2.797-2.219 5.073-4.946 5.073S1.746 9.66 1.746 6.864c0-2.798 2.218-5.073 4.945-5.073z"/></symbol><symbol viewBox="0 0 92 92" id="inst"><path d="M46 89.625c24.093 0 43.625-19.532 43.625-43.625S70.093 2.375 46 2.375 2.375 21.907 2.375 46 21.907 89.625 46 89.625zM91.5 46c0 25.129-20.372 45.5-45.5 45.5S.5 71.129.5 46 20.872.5 46 .5 91.5 20.871 91.5 46zm-8.625 0c0 20.365-16.509 36.875-36.875 36.875S9.125 66.365 9.125 46C9.125 25.634 25.634 9.125 46 9.125S82.875 25.635 82.875 46zM63.5 33.364c0-2.877-2.2-4.864-4.863-4.864H33.363c-2.662 0-4.863 1.987-4.863 4.864v25.272c0 2.877 2.2 4.864 4.863 4.864h25.274c2.662 0 4.863-1.987 4.863-4.864V33.364zm-10.762.944c0-.566.464-1.03 1.03-1.03h3.843c.566 0 1.03.464 1.03 1.03v3.664c0 .566-.465 1.03-1.03 1.03h-3.843c-.566 0-1.03-.464-1.03-1.03v-3.664zm-19.46 9.57h1.969a10.457 10.457 0 0 0-.282 2.417c0 5.946 4.97 10.74 11.068 10.74 6.097 0 11.069-4.794 11.069-10.74 0-.83-.1-1.64-.284-2.416h1.84V57.74a.855.855 0 0 1-.851.852H34.13a.857.857 0 0 1-.854-.852V43.88zm6.425 2.048c0-3.363 2.82-6.116 6.328-6.116 3.513 0 6.33 2.753 6.33 6.116 0 3.363-2.82 6.116-6.33 6.116-3.508 0-6.328-2.752-6.328-6.116z"/></symbol><symbol viewBox="0 0 201 55" fill="none" id="logotip"><path d="M42.864 10.967c-.588-.51-1.803-.901-4.155-.118-1.96-2.742-3.096-7.128-3.527-8.93-.04-.078-.04-.157-.04-.157a.295.295 0 0 0-.274-.196c-4.899.196-8.7 1.685-12.62 4.975-.94-1.959-2.312-3.408-3.723-4.896-.078-.079-.157-.079-.235-.079a.216.216 0 0 0-.196.118c-1.842 2.938-5.487 4.622-8.975 6.267-1.764.822-3.606 1.684-5.213 2.702h-.04l-.038.04c-.94.665-3.998 3.094-2.9 6.854.94 3.25 3.762 4.66 6.074 4.387.823-.118 3.528-.588 4.076-2.468.196-.587.196-1.84-.548-2.703-.392-.47-1.176-.94-2.548-.744-.078 0-.157.079-.196.157l-.039.04c-.078.078-.235.195-.314.39a.25.25 0 0 0 0 .236c.04.078.118.117.196.157.98.274 1.568.744 1.646 1.37.079.666-.391 1.371-.705 1.528 0 0-.04 0-.04.04-.509.39-2.625.43-3.448-.197l-.04-.039c-2.116-1.057-2.037-2.898-1.802-3.917.549-2.31 3.018-4.896 5.683-4.896 1.215 0 2.743.118 3.801 1.175 1.02 1.019 1.49 2.781 1.49 5.366v17c0 .156.117.273.235.273.157 0 .549.079 1.136.196-2.547-.274-4.82.118-6.78 1.175-3.331 1.802-4.546 4.935-4.703 5.915-.784 5.248 1.058 9.165 5.409 11.398.039 0 .039.039.078.039 1.019.196 1.96.313 2.783.313 4.037 0 5.996-2.115 7.133-3.838.039-.079.039-.118.039-.196 0-.079-.04-.118-.118-.196l-1.058-.705c-.078-.04-.157-.04-.235-.04-.078.04-.157.079-.157.157-1.567 3.251-4.31 3.486-5.8 3.369-2.352-.235-4.272-1.567-4.547-2.664-.313-2.232.236-3.838 1.529-4.7 1.607-1.057 3.84-.705 5.29.157 1.137.705 1.725 1.684 1.608 2.703 0 .117.039.195.117.274.079.039.196.078.275 0 2.508-1.332 4.703-2.076 6.898-2.233.117 0 .235-.078.235-.196 1.136-4.269 3.88-6.11 5.879-5.68.352.197.51.432.51.706 0 .51-.589 1.136-1.294 1.488a.306.306 0 0 0-.157.157c-.04.078 0 .157.04.235l.274.47c.078.117.196.157.313.117 1.568-.352 2.508-1.958 2.508-3.29 0-1.214-.666-2.075-1.802-2.31-2.587-.588-3.998.783-4.704 1.605l-.156-.156a47.202 47.202 0 0 0-1.372-1.332V12.024c0-1.096-.157-2.115-.392-3.094.118-.274 1.02-1.45 2.94-1.84.117-.04.156 0 .195 0 0 0 .079.077.118.312.51 5.797 3.84 10.067 4.625 10.497.196.079.313.079.392.04.196-.118.51-.392 1.136-.98 2-1.801 6.624-5.953 8.544-4.269.079.157.196.548.04.9-.157.354-.588.588-1.294.667-.078 0-.157.078-.196.117-.039.079-.039.157-.039.235l.117.353c.04.117.079.235.118.313.04.118.157.196.314.196 1.96-.313 3.214-1.175 3.41-2.35.078-.862-.157-1.645-.784-2.154zm-9.642 2.976c-.274.236-.627.549-.823.745-1.724-1.528-2.979-3.956-3.41-6.346.823 2.742 3.057 4.818 4.233 5.601zm-21.281 27.85c-.51 0-1.02.039-1.529.117 2.508-.783 5.957-.744 8.583 2.311-.43.118-.94.274-1.332.47-.94-1.801-3.175-2.898-5.722-2.898z" fill="#fff"/><path fill-rule="evenodd" clip-rule="evenodd" d="M69.24 27.457c.078.118.196.157.313.118.353-.118 1.176-.588 1.647-.823 1.293.431 1.88 1.136 1.88 2.35v7.207c0 .04 0 .118.04.157 1.607 2.39 3.449 4.112 4.82 4.465h.079a.3.3 0 0 0 .196-.078l.274-.314c.823-.9 2.195-2.428 3.724-3.407a.316.316 0 0 0 .117-.353c-.039-.039-.117-.235-.235-.392a4.967 4.967 0 0 0-.274-.47c-.04-.117-.157-.156-.314-.156a3.095 3.095 0 0 0-.784.274c-.588-.352-1.136-.98-1.332-1.567v-2.507h3.801v4.348c0 .04 0 .079.04.118.901 1.605 2.822 3.72 4.546 4.465.118.039.235.039.313-.04 1.725-1.644 3.332-3.133 5.291-4.151.118-.078.197-.235.118-.353-.078-.195-.196-.43-.274-.666a4.482 4.482 0 0 1-.235-.548.306.306 0 0 0-.157-.157.25.25 0 0 0-.235 0c-.667.353-1.255.784-1.646 1.019-.51-.196-1.372-1.175-1.372-1.528v-8.225c0-2.31-1.411-5.092-4.155-5.914-.117-.04-.235 0-.313.117-1.842 2.899-3.41 4.544-5.487 5.758-.079.039-.118.117-.118.156 0 .079 0 .157.04.196l.039.079c.117.195.352.548.43.744.04.078.118.117.158.156.078.04.156 0 .235-.039a6.042 6.042 0 0 0 1.215-.822c.744.078 1.567 1.332 1.567 2.39v.94h-3.801v-3.761c0-3.173-2.783-5.914-4.155-5.914-.078 0-.156.039-.235.117-2.038 2.86-4.311 4.974-6.192 5.836a.306.306 0 0 0-.157.157c-.04.078 0 .157.04.235l.548.783zm127.846-7.129c-.078-.039-.157 0-.196 0-2.626 1.371-4.546 2.703-6.075 4.113-.705-2.272-2.665-4.152-3.88-4.152-.078 0-.157.04-.235.118-1.646 2.272-3.41 4.113-5.056 5.17-1.293-1.92-3.645-4.387-7.76-5.288-.078 0-.196 0-.235.079-2.116 2.036-4.782 3.564-7.956 4.543-.079.04-.157.078-.196.196-.039.078 0 .196.039.274.706.862 1.137 1.724 1.137 3.486v5.249c-3.332-.157-6.31 1.057-7.878 1.88-.039 0-.078-.04-.118-.04-.509-.156-1.646-.548-2.351-1.566v-2.468c1.332-.9 2.978-1.292 5.408-1.684.04 0 .118-.04.118-.078.705-.627 2.822-2.115 3.841-2.625a.31.31 0 0 0 .157-.156c.039-.079 0-.157-.04-.235l-.783-1.371-.118-.157c-1.254-1.919-3.645-4.426-7.799-5.327-.079 0-.196 0-.236.079-2.116 2.036-4.781 3.564-7.956 4.543-.078.04-.156.078-.196.196v.157l-.823.235c-1.175-3.173-5.055-5.719-9.641-6.345 3.88-2.86 8.466-5.64 4.115-17.313-3.997.157-10.464 1.175-14.971 5.014-.941-2.115-2.391-3.643-3.724-5.014-2.782 4.387-9.328 5.915-13.952 8.852-.275.196-3.92 2.468-2.783 6.463.862 2.938 3.371 4.387 5.644 4.073.431-.039 3.253-.47 3.762-2.193.275-.9.039-3.447-2.743-3.016-.039.078-.235.196-.353.43 2.744.706 1.725 2.939.941 3.37-.627.508-2.822.508-3.724-.197-4.664-2.31-.47-9.086 3.88-9.126 2.94 0 5.409.862 5.409 6.659V34.82c1.097-.079 5.291-.118 7.603 1.331a.687.687 0 0 1-.156.196c-12.66-3.8-17.088 4.348-17.441 6.228-.98 5.17 1.097 8.734 5.291 10.262 1.176.43 2.195.587 3.135.587 3.175 0 5.095-2.115 6.31-3.956l-1.019-.665c-2.822 5.796-9.21 2.506-9.719.352-2.078-8.93 10.66-8.773 18.734.353 1.646-1.645 11.64-10.693 15.677-11.163v-10.85c0-.352-.039-.705-.118-1.057l1.137-.314c.392.666.588 1.45.588 2.703v7.521c.392 1.214 3.801 4.191 7.956 4.505.078 0 .117 0 .196-.04.352-.235.666-.548 1.019-.822 1.803-1.489 4.037-3.33 7.564-3.447.666 1.332 3.919 3.995 7.878 4.309.078 0 .117 0 .196-.04.235-.196.509-.391.783-.587 1.921-1.489 4.312-3.369 7.329-3.682.157 0 .275-.157.236-.313-.04-.51-.157-1.45-.196-1.841 0-.157-.118-.235-.275-.235-3.409 0-6.584 1.488-7.211 1.801-.039 0-.079-.039-.118-.039-.509-.156-1.646-.548-2.351-1.566v-2.468c1.332-.9 3.018-1.293 5.408-1.684.039 0 .118-.04.118-.079.705-.626 2.822-2.115 3.841-2.624a.311.311 0 0 0 .157-.156c.039-.079 0-.157-.04-.235l-.117-.196c.157-.079.313-.157.431-.235 1.293.43 1.881 1.136 1.881 2.35v7.207c0 .039 0 .117.039.156 1.607 2.39 3.449 4.113 4.821 4.465h.078a.298.298 0 0 0 .196-.078l.275-.313c.823-.901 2.194-2.429 3.723-3.408.118-.078.157-.235.118-.352-.04-.04-.118-.235-.236-.392a5.003 5.003 0 0 0-.274-.47c-.039-.117-.196-.157-.313-.157a3.16 3.16 0 0 0-.784.274c-.588-.352-1.137-.979-1.333-1.566v-8.03c.274-.235 1.098-.94 2.117-.9.509 0 1.293 1.41 1.606 2.937 0 .079.079.157.157.196a.33.33 0 0 0 .275 0c1.175-.744 4.703-1.84 5.8-2.076.118-.04.235-.157.235-.274.275-2.311-1.136-5.092-3.88-5.915zm-58.24-13.042c.862 4.151-1.058 7.912-2.744 9.674 1.372-3.25 2.665-6.423 1.019-10.105l1.725.43zm-3.88-.666c.431.078.431.156.627.548 3.998 7.99-6.663 15.393-6.976 15.667V11.79a11.73 11.73 0 0 0-.392-3.016c-.04-.157 4.232-2.624 6.741-2.154zm-3.371 39.128c-3.292-3.172-7.76-4.308-10.582-4.66l.314-.275c2.939 0 8.701 1.136 11.366 3.956-.431.392-.627.588-1.098.98zm7.368-6.266a43.768 43.768 0 0 0-2.821 2.115c-3.332-2.899-5.918-3.956-7.565-4.74V25.185c-.156.235 5.37-2.741 6.977-4.112.548.156 3.37-.196 3.37 6.697.039 3.8.039 10.89.039 11.712zm3.449-1.88a8.25 8.25 0 0 0-1.567.783c.039-3.76.039-9.048.039-12.181 0-1.489-.549-2.546-.862-2.899.117-.039.156-.078.235-.078 3.096 2.507 1.881 11.946 2.155 14.375zm30.61-11.712c2.195.353 3.214 1.802 3.723 2.703-1.685.313-2.626.666-3.723 1.175v-.588c.039-1.214.039-2.585 0-3.29zm-16.657 0c2.195.353 3.214 1.802 3.723 2.703-1.685.313-2.626.666-3.723 1.175v-.588c.039-1.214 0-2.585 0-3.29z" fill="#fff"/><path fill-rule="evenodd" clip-rule="evenodd" d="M103.808 46.963c-.314.313-.274.627-.118.822.588.549.902 1.293.902 2.076 0 1.019-.353 1.763-1.098 2.311-4.115 2.86-18.342-2.428-25.161-4.974a65.075 65.075 0 0 0-3.528-1.254c-.705-.235-1.254-.391-1.646-.509-8.779-2.546-17.715-3.29-24.574-1.997-2.86.548-6.623 1.958-9.053 3.407-.705-.705-1.646-1.762-1.646-4.7v-3.133c1.019.235 3.057.94 3.84 1.801.04.079.118.118.236.079.078 0 .157-.04.196-.118 1.097-1.41 2.9-3.368 5.644-4.073a.295.295 0 0 0 .196-.274v-9.4l.274.43c.078.118.196.157.314.118.352-.118 1.175-.588 1.646-.823 1.293.431 1.88 1.136 1.88 2.35v7.207c0 .04 0 .118.04.157 1.607 2.39 3.449 4.112 4.82 4.465h.08a.3.3 0 0 0 .195-.078c.862-.94 3.449-3.095 5.173-4.152.941 1.567 2.783 3.525 4.43 4.23.117.04.234.04.313-.04 1.764-1.683 3.37-3.172 5.408-4.23a.306.306 0 0 0 .157-.156c.04-.078 0-.157-.039-.235-.196-.313-.549-.94-.627-1.136a.306.306 0 0 0-.157-.157c-.078-.039-.157 0-.235.04-.666.352-1.254.783-1.646 1.018-.51-.196-1.372-1.175-1.372-1.527v-8.265c0-2.31-1.41-5.092-4.154-5.914-.118-.04-.235 0-.314.117-1.842 2.899-3.41 4.544-5.487 5.758-.078.04-.117.117-.117.157 0 .078 0 .156.039.195l.039.079c.118.196.353.548.431.744.04.078.118.117.157.157.078.039.157 0 .235-.04a6.04 6.04 0 0 0 1.215-.822c.745.078 1.568 1.332 1.568 2.39v5.287c-.784.43-1.882 1.096-2.391 1.527-.549-.352-1.137-.744-1.372-1.527v-8.108c0-3.172-2.782-5.914-4.154-5.914-.079 0-.157.039-.235.117-2 2.781-4.194 4.857-6.075 5.758v-.666c0-1.88-2.548-5.21-5.095-5.21-.079 0-.118 0-.157.04-.51.352-.98.744-1.45 1.097-1.254.979-2.352 1.84-3.488 2.271-.353-1.292-2.195-3.446-3.096-3.446-.079 0-.157.039-.236.117-2.469 3.055-5.447 5.366-9.131 7.05a.306.306 0 0 0-.157.157c-.04.078 0 .157.039.235l.549.94c.078.117.195.157.313.117.745-.195 2.156-.665 3.488-1.762 1.333.548 1.92 1.45 1.92 2.86v15.588c0 3.055 2.117 6.11 3.293 7.755l.196.274c.039.079.117.118.235.118.078 0 .157-.04.235-.118 3.684-4.465 8.23-7.089 14.345-8.225 7.054-1.331 14.971-.822 22.927 1.489.314.078.863.274 1.607.47h.04c.626.195 1.685.587 3.017 1.057 5.84 2.115 16.461 5.954 23.477 5.954 2.116 0 3.88-.353 5.095-1.215 1.175-.822 1.763-2.036 1.763-3.642 0-1.214-.509-2.35-1.371-3.173-.549-.392-2.117.157-2.587.627zm-62.16-19.31v8.735c-1.489-.549-2.704-.706-3.801-.823v-8.93c.784-.274 1.803-.666 2.547-1.175.863.509 1.254 1.488 1.254 2.193zm72.82 8.695c-.079-.195-.196-.43-.274-.666a4.583 4.583 0 0 1-.236-.548.305.305 0 0 0-.156-.157.252.252 0 0 0-.236 0c-.666.353-1.254.784-1.646 1.019-.509-.196-1.371-1.175-1.371-1.528v-8.225c0-2.31-1.411-5.092-4.155-5.914-.117-.04-.235 0-.313.117-1.842 2.899-3.41 4.544-5.487 5.758-.079.039-.118.117-.118.156 0 .079 0 .157.039.196l.039.079c.118.195.353.548.432.744.039.078.117.117.156.156.079.04.157 0 .236-.039a6.059 6.059 0 0 0 1.215-.822c.744.078 1.567 1.332 1.567 2.39v.94h-3.801v-3.761c0-3.173-2.783-5.914-4.155-5.914-.078 0-.157.039-.235.117-2.038 2.86-4.311 4.974-6.192 5.836a.305.305 0 0 0-.157.157c-.04.078 0 .157.039.235l.549.822c.078.118.196.157.313.118.353-.118 1.176-.588 1.646-.823 1.294.431 1.882 1.136 1.882 2.35v7.207c0 .04 0 .118.039.157 1.607 2.39 3.449 4.113 4.82 4.465h.079a.3.3 0 0 0 .196-.078l.274-.314c.823-.9 2.195-2.428 3.723-3.407.118-.078.157-.235.118-.353-.039-.039-.118-.235-.235-.391a4.999 4.999 0 0 0-.275-.47c-.039-.118-.156-.157-.313-.157-.235.04-.549.157-.784.274-.588-.352-1.137-.98-1.332-1.567v-2.506h3.801v4.347c0 .04 0 .079.039.118.902 1.606 2.822 3.72 4.547 4.465.117.04.235.04.313-.04 1.725-1.644 3.332-3.133 5.291-4.151.118-.117.157-.274.118-.392z" fill="#fff"/><path fill-rule="evenodd" clip-rule="evenodd" d="M7.276 43.085s-.039-.157-.039-.275c2.626-1.605 7.76-2.702 11.248 1.959-.627.117-1.489.43-1.96.744-1.214-3.016-5.408-4.073-9.249-2.428zM3.043 9.557C7.786 6.345 14.488 4.7 17.31 0c1.371 1.488 2.86 3.133 3.84 5.405C25.736 1.253 29.773.157 33.85 0c.04.078 1.215 6.306 3.723 9.792 4.076-1.488 4.938.588 4.703 2.037-.196 1.136-1.41 1.958-3.174 2.232-.04-.117-.157-.391-.235-.705 2.077-.274 1.606-1.84 1.41-2.154-2.625-2.546-9.21 4.935-10.033 5.405-.392.235-4.076-4.426-4.625-10.81-.039-.47-.195-.705-.627-.627-2.194.47-3.213 2.076-3.174 2.233.235.979.392 2.076.392 3.25V37.68c.705.666 1.293 1.332 1.842 1.88.666-.822 1.92-2.467 4.625-1.84 2.586.587 1.724 4.778-.706 5.326l-.274-.509c1.254-.587 2.155-2.115.784-2.859-2-.51-4.978 1.332-6.232 6.189-2.352.195-4.586 1.018-6.976 2.389.47-4.622-10.112-6.737-8.936 1.958.705 2.703 7.995 5.64 10.895-.627l1.058.745c-1.607 2.546-4.232 4.739-9.641 3.603-4.076-2.193-6.075-6.11-5.252-11.672.353-2.193 4.625-11.202 17.48-5.288.078-.117.118-.195.157-.274-2.822-1.645-7.133-2.35-7.604-2.389v-17.86c0-6.228-2.547-7.168-5.565-7.168-4.468 0-8.74 7.324-3.958 9.792.901.705 3.135.744 3.801.196.823-.431 1.842-2.82-.98-3.604.118-.235.314-.352.353-.43 2.861-.47 3.057 2.271 2.783 3.25-.51 1.88-3.41 2.311-3.88 2.39-2.312.313-4.86-1.254-5.761-4.387-1.176-4.309 2.704-6.855 2.821-6.933zM27.54 4.739c-.118 3.486 1.646 7.207 3.84 9.126.118-.156.98-.979 1.333-1.214-1.215-.666-4.624-3.8-4.742-7.794l-.431-.118zm54.868 25.264V28.71c0-1.253-.94-2.82-1.96-2.82-.548.47-.822.627-1.293.901-.078-.235-.352-.666-.51-.9 2.196-1.372 3.724-3.095 5.566-6.19 2.548.823 3.959 3.565 3.959 5.954v8.656c0 .588 1.136 1.802 1.685 1.92a22.086 22.086 0 0 1 1.724-1.136c.118.274.392.9.55 1.292-2.039 1.136-3.685 2.742-5.331 4.426-1.568-.705-3.488-2.82-4.429-4.583v-4.856h-4.35v2.976c.196.745.94 1.567 1.607 1.92.156-.118.587-.275.823-.314.117.274.43.784.47.901-1.764 1.214-3.292 3.134-4.037 3.956-1.372-.352-3.175-2.232-4.664-4.583v-7.559c0-1.37-.588-2.272-2.155-2.78-.627.39-1.411.822-1.686.9a10.523 10.523 0 0 0-.548-.862c1.724-.822 4.037-2.898 6.31-6.227 1.215 0 3.88 2.78 3.88 5.953v4.348h4.39z" fill="#6A3030"/><path fill-rule="evenodd" clip-rule="evenodd" d="M46.939 25.93c1.724-.823 4.037-2.9 6.31-6.228 1.215 0 3.88 2.78 3.88 5.953v8.656c.314 1.019 1.058 1.489 1.685 1.92.353-.392 1.607-1.215 2.626-1.802V28.71c0-1.253-.94-2.82-1.96-2.82-.548.47-.822.627-1.293.901-.078-.235-.352-.666-.51-.9 2.196-1.372 3.724-3.095 5.566-6.19 2.548.823 3.959 3.565 3.959 5.954v8.656c0 .588 1.136 1.802 1.685 1.92a22.105 22.105 0 0 1 1.724-1.136c.118.235.47.9.667 1.214-2.078 1.136-3.763 2.78-5.448 4.465-1.568-.705-3.488-2.82-4.429-4.583-1.724 1.019-4.546 3.525-5.448 4.583-1.372-.352-3.174-2.233-4.664-4.583v-7.56c0-1.37-.587-2.27-2.155-2.78-.627.392-1.411.823-1.685.9-.079-.117-.392-.665-.51-.822zm142.7-.275c.275-.274 1.255-1.175 2.391-1.097.823 0 1.607 1.92 1.842 3.33 1.176-.784 4.703-1.998 5.879-2.194 0-2.389-1.411-5.13-3.958-5.953-3.332 1.84-5.135 3.368-6.31 4.66-.549-2.584-2.665-4.66-3.724-4.66-1.881 2.742-3.762 4.622-5.369 5.68l-.039-.04-.079-.157c-1.332-2.154-3.723-4.582-7.603-5.483-3.175 3.25-6.937 4.465-8.074 4.857.706.9 1.215 1.84 1.215 3.877v5.836c-3.958-.313-7.446 1.606-8.152 1.998-.157-.118-1.842-.47-2.743-1.92v-2.82c1.371-1.057 3.096-1.488 5.643-1.919.706-.666 2.862-2.232 3.881-2.78l-.745-1.45-.078-.157c-1.333-2.154-3.724-4.582-7.604-5.483-3.174 3.25-6.937 4.465-8.074 4.857.706.9 1.215 1.84 1.215 3.877v7.795c.353 1.136 3.606 4.23 7.682 4.543 2.038-1.606 4.507-4.465 8.975-4.543.353 1.136 3.606 4.23 7.682 4.543 2.038-1.606 4.742-4.152 8.231-4.582-.04-.51-.157-1.489-.196-1.92-3.332 0-6.546 1.567-7.212 1.92-.157-.118-1.842-.47-2.743-1.92v-2.82c1.371-1.057 3.096-1.488 5.643-1.919.706-.666 2.861-2.233 3.88-2.78l-.235-.47c.275-.158.588-.353.784-.432 1.607.51 2.156 1.45 2.156 2.781v7.56c1.489 2.35 3.292 4.19 4.664 4.582.744-.861 2.273-2.78 4.036-3.956-.039-.117-.352-.626-.47-.9-.274.039-.666.195-.823.313-.666-.392-1.411-1.175-1.607-1.92v-8.734h.039zm-34.646 4.152V28.71c0-1.253 0-3.172-.039-3.76 2.9.313 3.958 2.428 4.468 3.369-2.195.43-3.136.822-4.429 1.488zm16.657 0V28.71c0-1.253 0-3.172-.039-3.76 2.9.313 3.958 2.428 4.468 3.369-2.195.43-3.136.822-4.429 1.488z" fill="#6A3030"/><path fill-rule="evenodd" clip-rule="evenodd" d="M106.316 50.213c0-1.214-.509-2.35-1.293-3.133-.392-.392-2.665.51-2.234 1.057.627.627.98 1.45.98 2.39 0 9.282-25.436-2.35-30.1-3.839-.745-.235-1.293-.43-1.685-.548-8.427-2.585-17.48-3.447-24.417-2.076-2.705.548-6.585 2.037-9.132 3.682-.745-.744-1.882-1.88-1.882-5.327v-3.643c.823.157 3.41.98 4.35 2.076.98-1.331 2.823-3.603 5.801-4.387V24.911c0-1.841-2.508-5.17-4.82-5.17-2 1.527-3.567 3.133-5.33 3.72 0-1.135-2.117-3.72-2.862-3.72-2.9 3.838-6.231 6.07-9.25 7.48.197.314.393.667.55.98.862-.235 2.234-.744 3.488-1.88 1.41.548 2.273 1.567 2.273 3.368v16.373c0 3.329 2.39 6.697 3.41 8.264 3.801-4.896 8.505-7.599 14.462-8.774 6.78-1.331 14.775-.94 23.045 1.606.314.079.901.274 1.646.549 4.86 1.488 33 13.943 33 2.506zM36.553 25.851c.902-.313 2.038-.783 2.783-1.371 1.02.588 1.529 1.763 1.529 2.663v9.597c-1.607-.666-2.9-.901-4.35-1.019v-9.87h.038zm66.784 4.152V28.71c0-1.253-.94-2.82-1.959-2.82-.549.47-.823.627-1.294.901-.078-.235-.352-.666-.509-.9 2.195-1.372 3.723-3.095 5.565-6.19 2.548.823 3.959 3.565 3.959 5.954v8.656c0 .588 1.136 1.802 1.685 1.92a21.954 21.954 0 0 1 1.725-1.136c.117.274.391.9.548 1.292-2.038 1.136-3.684 2.742-5.33 4.426-1.568-.705-3.488-2.82-4.429-4.583v-4.856h-4.35v2.976c.196.745.94 1.567 1.607 1.92.157-.118.588-.275.823-.314.117.274.431.784.47.901-1.764 1.214-3.292 3.134-4.037 3.956-1.371-.352-3.174-2.232-4.664-4.583v-7.559c0-1.37-.588-2.272-2.155-2.78-.627.39-1.411.822-1.686.9a10.523 10.523 0 0 0-.548-.862c1.724-.822 4.037-2.898 6.31-6.227 1.215 0 3.88 2.78 3.88 5.953v4.348h4.389z" fill="#6A3030"/><path fill-rule="evenodd" clip-rule="evenodd" d="M139.159 22.482c-.078 0-.117.04-.235.079.314.391.862 1.527.862 3.055 0 3.33 0 8.89-.039 12.808a6.767 6.767 0 0 1 1.568-.823c-.275-2.546.901-12.494-2.156-15.119zm7.721 2.429l1.137-.353 1.293.744-2.156.588c.079.352.118.744.118 1.097v11.437c-4.037.509-14.07 9.987-15.677 11.75-8.034-9.596-20.772-9.753-18.695-.352.51 2.271 6.898 5.757 9.72-.392l1.019.705c-1.215 1.958-3.136 4.152-6.31 4.152-.941 0-1.96-.196-3.136-.627-4.232-1.606-6.27-5.327-5.291-10.771.353-1.998 4.782-10.576 17.441-6.58.079-.118.079-.157.157-.235-2.352-1.528-6.506-1.489-7.603-1.41V16.098c0-6.11-2.47-7.011-5.409-7.011-4.35 0-8.544 7.168-3.88 9.596.862.705 3.057.705 3.684.196.784-.43 1.803-2.781-.941-3.525.079-.235.314-.353.353-.431 2.783-.43 3.018 2.232 2.744 3.173-.51 1.84-3.332 2.271-3.763 2.31-2.234.314-4.781-1.214-5.644-4.308-1.175-4.191 2.509-6.58 2.783-6.776 4.586-3.094 11.131-4.7 13.874-9.322 1.372 1.45 2.783 3.055 3.724 5.288C130.929 1.253 137.396.157 141.393 0c4.351 12.26-.235 15.197-4.115 18.213 4.585.666 8.426 3.368 9.602 6.698zM136.024 5.248c1.646 3.878.353 7.247-1.019 10.654 1.685-1.84 3.605-5.797 2.704-10.183l-1.685-.47zm-1.529.353c4.115 8.656-7.368 16.725-6.976 16.49V10.458c0-1.175-.157-2.233-.392-3.212-.039-.157 4.233-2.78 6.741-2.272.431.118.431.196.627.627zm-6.976 18.918v12.299c1.646.822 4.233 1.919 7.525 4.974.509-.47 1.999-1.645 2.822-2.232V27.182c0-7.246-2.822-6.893-3.371-7.05-1.607 1.489-7.133 4.622-6.976 4.387zm-7.603 16.764c2.821.352 7.289 1.567 10.582 4.896.431-.392.627-.627 1.097-1.018-2.665-2.938-8.426-4.152-11.366-4.152l-.313.274z" fill="#6A3030"/></symbol><symbol viewBox="0 0 16 16" id="modal-close"><path fill-rule="evenodd" clip-rule="evenodd" d="M15.211 13.446L9.908 8.143l5.303-5.304a1.25 1.25 0 0 0-1.767-1.767L8.14 6.375 2.837 1.072a1.25 1.25 0 1 0-1.768 1.767l5.304 5.304-5.304 5.303a1.25 1.25 0 1 0 1.768 1.768L8.14 9.91l5.304 5.304a1.25 1.25 0 1 0 1.767-1.768z"/></symbol><symbol viewBox="0 0 45 45" id="view"><path d="M44.61 42.705L33.674 31.77a19.107 19.107 0 0 0 4.71-12.582C38.383 8.601 29.77 0 19.192 0 8.602 0 0 8.61 0 19.187c0 10.577 8.613 19.188 19.192 19.188 4.81 0 9.211-1.776 12.584-4.71l10.939 10.936c.26.26.608.399.948.399a1.349 1.349 0 0 0 .948-2.295zM2.686 19.187c0-9.1 7.405-16.493 16.497-16.493 9.101 0 16.497 7.404 16.497 16.493 0 9.09-7.396 16.504-16.497 16.504-9.092 0-16.497-7.404-16.497-16.504z"/></symbol><symbol viewBox="0 0 32 32" id="vk"><path fill-rule="evenodd" clip-rule="evenodd" d="M16 29c7.18 0 13-5.82 13-13S23.18 3 16 3 3 8.82 3 16s5.82 13 13 13zm7.906-8.4l.004.01c.02.046.041.124.06.24a.67.67 0 0 1-.003.304c-.022.091-.097.173-.221.248a.714.714 0 0 1-.234.087 1.46 1.46 0 0 1-.288.026l-2.274.034a.97.97 0 0 1-.497-.043 2.128 2.128 0 0 1-.463-.198l-.177-.107a4.163 4.163 0 0 1-.622-.573c-.24-.257-.442-.486-.61-.693a2.924 2.924 0 0 0-.54-.52c-.193-.138-.358-.185-.5-.138l-.025.009a.367.367 0 0 0-.047.022.642.642 0 0 0-.153.129 1.27 1.27 0 0 0-.19.263 1.69 1.69 0 0 0-.152.464 2.814 2.814 0 0 0-.059.693c0 .09-.01.172-.031.247a.49.49 0 0 1-.065.166l-.034.044c-.106.113-.262.179-.47.198h-1.02A3.982 3.982 0 0 1 14 21.364a4.963 4.963 0 0 1-1.166-.473 11.146 11.146 0 0 1-.915-.592c-.273-.2-.481-.37-.624-.514l-.221-.217c-.06-.06-.143-.15-.246-.27a22.44 22.44 0 0 1-.634-.814c-.32-.423-.634-.875-.942-1.351a26.09 26.09 0 0 1-1.088-1.887A26.477 26.477 0 0 1 7.01 12.8a1.03 1.03 0 0 1-.039-.124.515.515 0 0 1-.014-.117.29.29 0 0 1 .027-.145l.035-.053c.09-.113.257-.17.507-.17l2.43-.018c.072.013.14.031.206.06.066.025.115.05.143.075l.043.028c.097.066.168.16.215.285.118.301.252.608.407.928.153.32.274.564.364.73l.143.26a9.837 9.837 0 0 0 .498.931c.079.13.153.244.224.344.073.105.143.196.208.27.124.148.249.261.367.346a.8.8 0 0 0 .173.098.35.35 0 0 0 .128.027.688.688 0 0 0 .24-.044.132.132 0 0 0 .043-.044 2.73 2.73 0 0 0 .106-.197 1.41 1.41 0 0 0 .12-.42c.026-.173.054-.414.085-.724.012-.134.02-.197.02-.261.003-.086-.004-.17-.02-.42a4.412 4.412 0 0 0-.08-.652 1.792 1.792 0 0 0-.125-.41l-.053-.107c-.15-.204-.4-.332-.755-.385-.078-.013-.063-.085.043-.217.1-.116.211-.203.336-.27.314-.156 1.02-.228 2.12-.215.486.006.883.043 1.198.116.061.016.118.035.17.057.046.02.09.04.128.065a.517.517 0 0 1 .183.216c.04.091.072.188.093.285.022.1.032.235.032.408 0 .172-.004.338-.01.492-.003.066-.005.061-.008.056-.004-.008-.008-.016-.014.135a22.41 22.41 0 0 0-.012.74c0 .066-.003.191-.01.376l-.002.096c-.002.14-.003.251 0 .334.003.103.012.222.03.363.02.138.053.254.103.348.05.094.115.166.2.22.05.009.099.021.152.034.052.013.13-.019.23-.097a2.827 2.827 0 0 0 .545-.551c.077-.1.161-.218.253-.355.184-.273.386-.593.604-.962a14.49 14.49 0 0 0 .951-2.013.587.587 0 0 1 .087-.157.375.375 0 0 1 .097-.094l.034-.028.043-.022.116-.028a.452.452 0 0 1 .143-.011.151.151 0 0 1 .034.008l2.555-.019c.23-.031.42-.022.57.022.146.044.239.094.273.147l.053.088c.137.38-.308 1.257-1.33 2.63-.144.191-.337.445-.58.762-.46.595-.727.987-.798 1.172-.1.245-.06.486.124.724.1.126.339.37.718.734h.01l.019.018.018.02c.834.78 1.4 1.441 1.694 1.977.018.03.035.064.055.104z"/><path fill-rule="evenodd" clip-rule="evenodd" d="M32 16c0 8.837-7.164 16-16 16S0 24.837 0 16 7.164 0 16 0s16 7.163 16 16zm-1 0c0 8.284-6.716 15-15 15-8.284 0-15-6.716-15-15C1 7.716 7.716 1 16 1c8.284 0 15 6.716 15 15z"/></symbol></svg>