<svg version="1" xmlns="http://www.w3.org/2000/svg" width="933.333" height="933.333" viewBox="0 0 700.000000 700.000000"><path d="M469.1 8.9c-5.1 7-15.5 17.5-23 23.1-10 7.6-23.6 15.3-53.4 30.6-16.4 8.5-34.4 18.1-40 21.6-32.7 19.9-42.9 48.4-28.1 78.3 11 22.4 32.3 32.6 55.6 26.6 17.7-4.6 26.6-13 26.9-25.4.3-10.1-4.1-18.5-11.5-21.8-6.6-3-16.6-2.1-16.6 1.4 0 .7 2.3 2.3 5.2 3.7 8.5 4.1 11.5 10.5 9.3 19.3-1.4 5.6-4.5 9.3-10 11.8-5.7 2.6-21.4 2.1-26.7-.9-11.8-6.7-16.6-11.3-20.1-19.1-2.5-5.5-3.1-19.3-1.1-25.6 6.4-20.7 23.4-38.7 41.6-44.2 5.3-1.5 19-2.1 24.5-.9 1.5.4 3.9.8 5.3 1.1 3.4.7 12 5.1 15.1 7.8 8 7.1 13.8 21.6 15.5 38.2.4 3.8.8 47.5.9 97 .1 49.5.3 90.2.4 90.5 0 .3 5.2.5 11.4.5 14.4 0 21.9.8 34.7 3.6 8.9 2 23 8 23 9.9 0 1.4-.7 1.3-11.2-1.5-43.9-11.8-81.7-7.7-111.4 12.1-20.9 13.9-36.6 35.9-39.8 56.1-4.2 26.3.8 51.6 13.5 68.6 18.4 24.4 55.4 37.5 82.2 29 14.3-4.5 29.1-16.8 39-32.5 1.7-2.7 1.6-2.7-2.5-5.7-2.3-1.7-4.4-3.1-4.7-3.1-.4 0-2.2 2.8-4.1 6.2-6.9 12.2-19.8 22.2-31.3 24.2-14.5 2.6-32.3-2.5-44.2-12.7-8.5-7.2-12-15.6-12.4-29.7-.7-26.1 13.1-43.2 38.9-47.9 6.3-1.1 26.8-.6 31.4.8 1.7.6 4.7 1.2 6.6 1.5 5.6.8 20.6 6.3 31.4 11.6 19.1 9.1 37 22.4 55.1 40.6l11.1 11.2 10.5-10.2c37-35.8 79.2-70.1 105.1-85.4 11-6.5 19.2-10.2 26.1-11.6l2.7-.6v-54.3c0-32.5-.4-56.8-1.1-60.7-.6-4.1-2.8-10.3-6-16.9-4.6-9.4-6.2-11.5-14.8-20.1-10.4-10.4-16.8-15-30.1-21.7-7.4-3.8-20.4-8.6-26.5-9.9-1.1-.2-3.6-.7-5.5-1.1-1.9-.4-3.8-.8-4.2-.9-.5-.1-1.6-.2-2.5-.3-1.6-.1-1.6-.3.2-1.7 1.1-.8 2.9-2.2 4-3.2 1.1-.9 3.7-3 5.8-4.5 3.3-2.5 8.8-7.3 16.2-14.2 8.8-8.2 18.5-24.1 22.3-36.5 3-9.9 4.6-24.7 3.8-36.9-.6-10.9-1.3-17.5-2.1-20.1-.3-.8-.7-3.3-1-5.5-1.2-8-7.2-30.3-11.3-41.4l-1.6-4.4-9 .7c-5 .3-10.5.8-12.1 1-1.7.3-5 .7-7.5 1-2.5.3-5.6.8-7 1.1-1.4.3-4.1.8-6 1.1-6 1-29.4 7.2-35.6 9.4-22 7.9-43.6 19.7-55.9 30.5-2.2 1.9-4.3 3.5-4.6 3.5-.3 0-1.6-2.4-2.9-5.3-3.1-7-12.8-21.4-21.1-31.2-10.7-12.8-9.8-12.4-14.8-5.6zm108.7 40.2c5.5 2.1 12.5 25.2 12.5 41.4.1 25.6-14.5 57.4-38.4 83.9-9 9.9-32.8 32.1-33.6 31.2-.1-.1-.3-25.6-.4-56.7-.1-55.9-.7-68.7-3.4-77.9-1.3-4.1 31.3-19.7 45-21.7 2.2-.3 4.2-.7 4.5-1 .7-.7 11.4-.1 13.8.8zm34 6.4c1.6 1.5 2.2 28.1.9 37-1.1 6.8-3.4 15.9-5.8 22.5-3.2 8.7-11.7 24.1-15.9 29l-4 4.5 2.6-6.5c9.4-23.3 13.6-40.9 13.5-56.8-.1-5.7-.3-10.7-.5-11-.2-.4-.7-2.8-1-5.3-.3-2.6-1.5-7.3-2.6-10.4-1.1-3.2-2-6.1-2-6.5 0-.6 13.9 2.7 14.8 3.5zm-18.8 136c10.8 5.5 17 19.5 19.5 44 .4 4 .9 106.3.6 127.1l-.1 5.1-9.7 7.6c-5.4 4.1-11.2 8.7-12.9 10.1l-3.1 2.5-2.9-2.5c-17.6-15.7-37.5-29-58.1-39l-8.2-3.9-.1-56.6v-56.6l12.8-7.3c16.2-9.2 36.4-22 45-28.5 6-4.6 7-5.1 10.2-4.5 1.9.4 5.1 1.5 7 2.5zm35 21.7c3.9 4.2 8.4 13.4 10.9 22.3 1.7 6.3 2.6 11 4.7 26.5.3 2.5.8 23.2 1 46.1l.5 41.7-3.3 1.1c-1.8.7-5 2.3-7 3.6-2.5 1.7-3.8 2.1-3.9 1.3v-62.3c.1-65.5 0-67.3-5.1-77.5-2.1-4.3-2.5-6-1.2-6 .2 0 1.7 1.5 3.4 3.2zM467.7 382.1c35.1 4.7 65.2 16.5 83.3 32.7l4.5 4-2.5 2.7c-1.4 1.5-3.7 3.6-5.3 4.7l-2.7 1.9-7.3-6.3c-18.2-15.9-41.2-27.4-68.6-34.3-8.5-2.2-15.9-3.6-19.8-3.8-.9 0-1-.4-.2-1.4 1.4-1.6 7.9-1.7 18.6-.2z"/><path d="M305.7 197.6c-.1.1-3.1.4-6.7.8-5.8.5-8.5.9-15.5 2.1-12.3 2.1-29.4 8-42.9 15-10.9 5.5-27.9 16.4-33.1 21.2-1.1 1-4.3 3.7-7.2 6.1l-5.2 4.3-3.2-6.3c-4.3-8.6-11.9-19.6-20.3-29.7-3.9-4.6-7.9-9.4-8.9-10.7-1-1.3-2.2-2.4-2.7-2.4-.4 0-2.5 2.4-4.6 5.2-13.1 18.3-29.8 30.3-71.2 51.4-55.6 28.4-65.2 35-75.7 51.8-13.6 21.9-10 49.9 8.9 69 15.3 15.5 34.6 18.6 56.1 9.2 12.9-5.8 18-12.6 17.8-24.2-.1-11.6-5.4-20-14.1-22.3-5-1.4-10.9-.7-13.3 1.5-2 1.8-2 1.8 2.8 4 9 4 12.8 9.6 12.1 17.5-1.1 11-9 17.1-22.2 17.1-9.1 0-14.7-1.5-21.9-5.9-7.8-4.9-13-10.8-15.6-17.9-9.3-24.8 12.9-61 42.8-69.8 7.2-2.1 23.3-1.5 31.9 1.2 6 1.9 11.5 5.3 15.6 9.5 5.6 5.7 10.7 18.2 13.2 32.2.3 2.2.8 43.8 1 92.5.2 48.7.4 89.7.4 91.1 0 2.4.5 2.7 4.8 3.4 7.3 1 27.7 6.2 38.2 9.6 13.8 4.5 27.2 11 26.1 12.8-.7 1.1-1.4 1.1-4.2-.2-23.9-11-45-16-67.4-16.1-14.7-.1-17 .1-27.5 2.8-5.8 1.5-24.7 9.9-26 11.5-.3.3-2.3 1.9-4.5 3.5-13.2 9.7-26.7 28.8-30.9 43.7-1.8 6.3-2.8 16-2.9 26.8-.1 34 14 61.8 40.6 79.9 10 6.7 16.7 8.3 34.7 8.3 11.2 0 13.5-.3 21.9-2.7 11.6-3.3 20.1-8.4 29.1-17.4 8.2-8.2 12.5-14.7 11-16.5-1.4-1.7-8-5.9-8.4-5.4-.1.2-1.8 3.1-3.6 6.4-7.1 12.5-20.5 22.7-34 25.8-7.8 1.8-20.1 1.5-28.5-.7-13.7-3.6-27.9-13.4-32.2-22.2-1.1-2.1-2.1-6.2-2.3-8.9-.1-2.8-.3-6.4-.4-8-.3-4.9 2.2-16.3 4.7-21.8 10.9-23.7 48.1-27.3 68.7-6.7 7.1 7.1 9.7 12.3 9.9 20.3l.1 2.8 9.8-4.9c5.3-2.7 11.3-5.5 13.2-6.2 1.9-.7 4-1.6 4.5-2 3-2.1 25.1-7.7 32.3-8.2 4.1-.3 4.5-.9 6.6-8 8.2-28.7 30.5-51.1 49.8-50.2 14 .7 15.5 15 2.6 24.1-4.1 2.8-4.7 4.3-2.4 6.3 1.2.9 2.3.8 5.1-.6 15.7-7.4 21.6-31.3 10.4-42.5-4.5-4.5-9-5.7-20.4-5.5-10.3.2-17 3.3-25.2 11.6l-5.8 5.9-8.2-8.6-8.3-8.5v-9.7c0-5.3-.1-63.4-.1-129.1 0-110.9-.2-120.3-1.9-130-2-11.9-1.7-13.1 4.2-18.6 3.4-3.2 12.9-9.9 13.8-9.7.3 0 1.5-.3 2.6-.8 4.5-1.7 9.4-2.1 10.8-1 .8.7 1.7 4 2.1 7.4 3.3 32.2 17.6 68.9 35.4 90.9 2.5 3.2 5.3 5.8 6.1 5.8 1.6 0 2.9-1.1 17.6-14.6 19.3-17.9 32.7-28 45.3-34.4 7.7-3.9 10-4.5 18.3-4.5 5.2.1 7.4.5 9.5 2.1 3.2 2.4 4.9 7.8 3.9 11.9-1 3.9-5.8 8.1-10.2 9-3.4.6-3.6.8-3 3.7.3 1.8.7 3.3.9 3.4.7.8 12.8-2.7 16.6-4.8 5.5-2.9 11.7-9.8 12.5-13.9 1.8-9.4-.9-17.2-7.5-21.6-3.8-2.5-5.1-2.8-12.3-2.8-8.3 0-13.3.7-18 2.5-1.5.5-3.5 1-4.4 1-3.1 0-15.2-23.8-22.2-43.5-3.2-9-11.5-38.9-12.2-43.5-.2-2-.9-2.4-3.6-2.5-1.8 0-3.4 0-3.5.1zm-49.1 44.2c.6.4 1.5 3.4 1.9 6.7 1.5 12.6 7.1 26.1 16.3 39 6.5 9.3 19.1 22.1 24.9 25.3 1.5.9 1.1 1.7-4.2 6.6l-6 5.6-6.2-6.4c-13.3-13.9-23.4-34.6-27.8-57.1-1.1-5.7-1.7-20.5-.9-20.5.5 0 1.4.4 2 .8zM129 581.5c12.2 3.1 22.5 9.1 32.4 18.8 4.9 4.8 8.5 9.1 8 9.6-.5.4-2.9 1.3-5.4 2-2.5.7-6.1 2.1-8 3.1l-3.6 1.8-2.3-4.3c-3.9-7.4-11.2-14.2-20-18.5-8.1-4.1-17.3-6.2-27.6-6.4-9.3-.2-12.9.3-27 3.8-.5.2-2.3.8-3.8 1.4-6.2 2.6-6.5.4-.4-3.1 15.6-9 40.6-12.6 57.7-8.2z"/></svg>