<svg width="200" height="55" viewBox="0 0 200 55" fill="none" xmlns="http://www.w3.org/2000/svg">
<path fill-rule="evenodd" clip-rule="evenodd" d="M7.27628 43.0846C7.27628 43.0846 7.23708 42.9279 7.23708 42.8104C9.86298 41.2045 14.9972 40.1078 18.4854 44.7688C17.8583 44.8863 16.996 45.1996 16.5257 45.513C15.3108 42.4971 11.1171 41.4395 7.27628 43.0846ZM3.04348 9.55694C7.78578 6.34518 14.4877 4.70014 17.3096 0C18.6813 1.48838 20.1706 3.13342 21.1504 5.40516C25.736 1.25337 29.7728 0.156671 33.8488 0C33.888 0.0783356 35.0638 6.30601 37.5721 9.79195C41.6481 8.30357 42.5104 10.3795 42.2752 11.8287C42.0793 12.9645 40.8643 13.7871 39.1006 14.0612C39.0614 13.9437 38.9439 13.6696 38.8655 13.3562C40.9427 13.082 40.4724 11.5153 40.2764 11.202C37.6505 8.65608 31.0662 16.1371 30.2431 16.6071C29.8512 16.8422 26.1671 12.1812 25.6184 5.79683C25.5792 5.32682 25.4224 5.09181 24.9913 5.17015C22.7965 5.64016 21.7775 7.24604 21.8167 7.40271C22.0519 8.38191 22.2086 9.47861 22.2086 10.6536C22.2086 19.6622 22.2086 28.6708 22.2086 37.6794C22.9141 38.3453 23.502 39.0111 24.0507 39.5595C24.717 38.737 25.9711 37.0919 28.6754 37.7186C31.2621 38.3061 30.3999 42.4971 27.9699 43.0454L27.6956 42.5362C28.9498 41.9487 29.8512 40.4212 28.4795 39.677C26.4806 39.1678 23.502 41.0087 22.2478 45.8655C19.8963 46.0613 17.6623 46.8838 15.2716 48.2547C15.7419 43.6329 5.15988 41.5179 6.33566 50.2131C7.04112 52.9157 14.3309 55.8533 17.2312 49.5864L18.2894 50.3306C16.6825 52.8765 14.0566 55.0699 8.64802 53.9341C4.57199 51.7407 2.57317 47.8239 3.39622 42.2621C3.74895 40.0687 8.02094 31.0601 20.8761 36.9744C20.9545 36.8569 20.9937 36.7786 21.0329 36.7002C18.211 35.0552 13.8998 34.3502 13.4295 34.311C13.4295 28.3575 13.4295 22.404 13.4295 16.4505C13.4295 10.2228 10.882 9.28277 7.86417 9.28277C3.39621 9.28277 -0.875778 16.6071 3.90571 19.0747C4.80714 19.7797 7.04112 19.8189 7.7074 19.2706C8.53044 18.8397 9.54945 16.4505 6.72758 15.6671C6.84516 15.4321 7.04112 15.3146 7.08031 15.2363C9.94137 14.7663 10.1373 17.508 9.86299 18.4872C9.35349 20.3673 6.45323 20.7981 5.98292 20.8764C3.67056 21.1898 1.12304 19.6231 0.221616 16.4896C-0.954161 12.1812 2.9259 9.63528 3.04348 9.55694ZM27.5388 4.7393C27.4213 8.22524 29.1849 11.9462 31.3797 13.8654C31.4973 13.7087 32.3595 12.8862 32.7122 12.6512C31.4973 11.9853 28.0875 8.85192 27.9699 4.85681L27.5388 4.7393Z" fill="white"/>
<path fill-rule="evenodd" clip-rule="evenodd" d="M82.4081 30.0027V28.7102C82.4081 27.4568 81.4675 25.8901 80.4485 25.8901C79.8998 26.3601 79.6254 26.5168 79.1551 26.791C79.0767 26.556 78.8024 26.1251 78.6456 25.8901C80.8404 24.5193 82.3689 22.7959 84.211 19.7016C86.7585 20.5241 88.1694 23.2659 88.1694 25.6551V34.3112C88.1694 34.8987 89.306 36.1129 89.8547 36.2304C90.2858 35.9171 90.9129 35.4862 91.5792 35.0946C91.6967 35.3687 91.9711 35.9954 92.1279 36.3871C90.0899 37.523 88.4438 39.1288 86.7977 40.8131C85.23 40.108 83.3095 37.993 82.3689 36.2304V31.3736H78.0185V34.3504C78.2145 35.0946 78.9592 35.9171 79.6254 36.2696C79.7822 36.1521 80.2133 35.9954 80.4485 35.9563C80.5661 36.2304 80.8796 36.7396 80.9188 36.8571C79.1551 38.0713 77.6266 39.9905 76.882 40.8131C75.5102 40.4605 73.7074 38.5805 72.218 36.2304C72.218 32.2745 72.218 32.627 72.218 28.671C72.218 27.3002 71.6302 26.3993 70.0625 25.8901C69.4354 26.2818 68.6515 26.7127 68.3772 26.791C68.2988 26.6343 67.9461 26.086 67.8285 25.9293C69.553 25.1068 71.8653 23.0309 74.1385 19.7016C75.3535 19.7016 78.0185 22.4825 78.0185 25.6551V30.0027H82.4081Z" fill="white"/>
<path fill-rule="evenodd" clip-rule="evenodd" d="M46.9389 25.9293C48.6633 25.1068 50.9757 23.0309 53.2489 19.7016C54.4638 19.7016 57.1289 22.4825 57.1289 25.6551V34.3112C57.4425 35.3296 58.1871 35.7996 58.8142 36.2304C59.1669 35.8388 60.4211 35.0162 61.4401 34.4287C61.4401 32.5095 61.4401 30.6294 61.4401 28.7102C61.4401 27.4568 60.4995 25.8901 59.4805 25.8901C58.9318 26.3601 58.6574 26.5168 58.1871 26.791C58.1087 26.556 57.8344 26.1251 57.6776 25.8901C59.8724 24.5193 61.4009 22.7959 63.243 19.7016C65.7905 20.5241 67.2014 23.2659 67.2014 25.6551V34.3112C67.2014 34.8987 68.338 36.1129 68.8867 36.2304C69.3178 35.9171 69.9449 35.4862 70.6112 35.0946C70.7288 35.3296 71.0815 35.9954 71.2774 36.3088C69.2002 37.4446 67.515 39.0897 65.8297 40.7739C64.262 40.0689 62.3415 37.9538 61.4009 36.1913C59.6765 37.2096 56.8546 39.7164 55.9532 40.7739C54.5814 40.4214 52.7786 38.5413 51.2892 36.1913C51.2892 32.2353 51.2892 32.5878 51.2892 28.6319C51.2892 27.261 50.7014 26.3601 49.1336 25.851C48.5066 26.2426 47.7227 26.6735 47.4484 26.7518C47.37 26.6343 47.0565 26.086 46.9389 25.9293Z" fill="white"/>
<path fill-rule="evenodd" clip-rule="evenodd" d="M189.639 25.655C189.913 25.3808 190.893 24.48 192.03 24.5583C192.853 24.5583 193.637 26.4775 193.872 27.8876C195.048 27.1042 198.575 25.89 199.751 25.6942C199.751 23.305 198.34 20.5632 195.792 19.7407C192.461 21.5816 190.658 23.1091 189.482 24.4016C188.934 21.8166 186.817 19.7407 185.759 19.7407C183.878 22.4824 181.997 24.3625 180.39 25.42L180.35 25.3808L180.272 25.2242C178.94 23.0699 176.549 20.6415 172.669 19.7407C169.494 22.9916 165.732 24.2058 164.595 24.5975C165.3 25.4983 165.81 26.4384 165.81 28.4751V34.3111C161.852 33.9978 158.363 35.917 157.658 36.3087C157.501 36.1912 155.816 35.8386 154.914 34.3894V31.5694C156.286 30.5118 158.011 30.081 160.558 29.6501C161.264 28.9843 163.419 27.4176 164.438 26.8692L163.694 25.42L163.615 25.2633C162.283 23.1091 159.892 20.6807 156.012 19.7799C152.837 23.0308 149.075 24.245 147.938 24.6367C148.644 25.5375 149.153 26.4775 149.153 28.5143V36.3087C149.506 37.4445 152.759 40.5388 156.835 40.8521C158.873 39.2462 161.342 36.387 165.81 36.3087C166.163 37.4445 169.416 40.5388 173.492 40.8521C175.53 39.2462 178.234 36.7003 181.722 36.2695C181.683 35.7603 181.565 34.7811 181.526 34.3503C178.195 34.3503 174.981 35.917 174.315 36.2695C174.158 36.152 172.473 35.7995 171.571 34.3503V31.5302C172.943 30.4727 174.667 30.0418 177.215 29.611C177.92 28.9451 180.076 27.3784 181.095 26.8301L180.86 26.36C181.134 26.2034 181.448 26.0075 181.644 25.9292C183.251 26.4384 183.799 27.3784 183.799 28.7101C183.799 32.6661 183.799 32.3135 183.799 36.2695C185.289 38.6196 187.092 40.4604 188.463 40.8521C189.208 39.9904 190.736 38.0712 192.5 36.8962C192.461 36.7787 192.147 36.2695 192.03 35.9953C191.755 36.0345 191.364 36.1912 191.207 36.3087C190.54 35.917 189.796 35.1336 189.6 34.3894V25.655H189.639ZM154.993 29.8068V28.7101C154.993 27.4567 154.993 25.5375 154.954 24.95C157.854 25.2633 158.912 27.3784 159.422 28.3184C157.227 28.7493 156.286 29.141 154.993 29.8068ZM171.65 29.8068V28.7101C171.65 27.4567 171.65 25.5375 171.61 24.95C174.511 25.2633 175.569 27.3784 176.078 28.3184C173.884 28.7493 172.943 29.141 171.65 29.8068Z" fill="white"/>
<path fill-rule="evenodd" clip-rule="evenodd" d="M106.316 50.2132C106.316 48.999 105.807 47.8632 105.023 47.0798C104.631 46.6881 102.358 47.589 102.789 48.1373C103.416 48.764 103.769 49.5865 103.769 50.5266C103.769 59.8093 78.3326 48.1765 73.6687 46.6881C72.924 46.4531 72.3753 46.2573 71.9834 46.1398C63.557 43.5547 54.5035 42.693 47.5664 44.0639C44.8621 44.6122 40.9821 46.1006 38.4346 47.7457C37.6899 47.0015 36.5533 45.8656 36.5533 42.4188C36.5533 40.9696 36.5533 41.3613 36.5533 38.7762C37.3764 38.9329 39.9631 39.7554 40.9037 40.8521C41.8835 39.5204 43.7256 37.2487 46.7042 36.4653V24.9108C46.7042 23.0699 44.1959 19.7407 41.8835 19.7407C39.8847 21.2682 38.317 22.8741 36.5533 23.4616C36.5533 22.3258 34.4369 19.7407 33.6923 19.7407C30.792 23.5791 27.4607 25.8117 24.4428 27.2217C24.6388 27.5351 24.8348 27.8876 24.9915 28.2009C25.8538 27.9659 27.2255 27.4567 28.4797 26.3209C29.8906 26.8692 30.7528 27.8876 30.7528 29.6893C30.7528 35.9953 30.7528 39.9513 30.7528 46.0614C30.7528 49.3907 33.1436 52.7591 34.1626 54.3258C37.9643 49.4299 42.6674 46.7273 48.6246 45.5523C55.405 44.2206 63.4002 44.6122 71.6699 47.1581C71.9834 47.2365 72.5713 47.4323 73.3159 47.7065C78.1758 49.1949 106.316 61.6502 106.316 50.2132ZM36.5533 25.8509C37.4548 25.5375 38.5913 25.0675 39.336 24.48C40.355 25.0675 40.8645 26.2425 40.8645 27.1434C40.8645 30.3552 40.8645 33.5669 40.8645 36.7395C39.2576 36.0737 37.9643 35.8386 36.5141 35.7211V25.8509H36.5533Z" fill="white"/>
<path fill-rule="evenodd" clip-rule="evenodd" d="M103.337 30.0027V28.7102C103.337 27.4568 102.397 25.8901 101.378 25.8901C100.829 26.3601 100.555 26.5168 100.084 26.791C100.006 26.556 99.7316 26.1251 99.5748 25.8901C101.77 24.5193 103.298 22.7959 105.14 19.7016C107.688 20.5241 109.099 23.2659 109.099 25.6551V34.3112C109.099 34.8987 110.235 36.1129 110.784 36.2304C111.215 35.9171 111.842 35.4862 112.508 35.0946C112.626 35.3687 112.9 35.9954 113.057 36.3871C111.019 37.523 109.373 39.1288 107.727 40.8131C106.159 40.108 104.239 37.993 103.298 36.2304V31.3736H98.9477V34.3504C99.1437 35.0946 99.8883 35.9171 100.555 36.2696C100.711 36.1521 101.142 35.9954 101.378 35.9563C101.495 36.2304 101.809 36.7396 101.848 36.8571C100.084 38.0713 98.5558 39.9905 97.8111 40.8131C96.4394 40.4605 94.6365 38.5805 93.1472 36.2304C93.1472 32.2745 93.1472 32.627 93.1472 28.671C93.1472 27.3002 92.5593 26.3993 90.9916 25.8901C90.3645 26.2818 89.5807 26.7127 89.3063 26.791C89.2279 26.6343 88.8752 26.086 88.7576 25.9293C90.4821 25.1068 92.7945 23.0309 95.0676 19.7016C96.2826 19.7016 98.9477 22.4825 98.9477 25.6551V30.0027H103.337Z" fill="white"/>
<path fill-rule="evenodd" clip-rule="evenodd" d="M139.159 22.4823C139.081 22.4823 139.041 22.5215 138.924 22.5606C139.237 22.9523 139.786 24.0882 139.786 25.6157C139.786 28.945 139.786 34.5068 139.747 38.4236C140.374 37.9928 140.805 37.7969 141.315 37.6011C141.04 35.0552 142.216 25.1066 139.159 22.4823ZM146.88 24.9107L148.016 24.5582L149.31 25.3024L147.154 25.8899C147.233 26.2424 147.272 26.6341 147.272 26.9866C147.272 30.7859 147.272 37.4052 147.272 38.4236C143.235 38.9328 133.202 48.4114 131.595 50.174C123.56 40.5778 110.823 40.4212 112.9 49.8214C113.409 52.0932 119.798 55.5791 122.62 49.4298L123.639 50.1348C122.424 52.0932 120.503 54.2866 117.329 54.2866C116.388 54.2866 115.369 54.0907 114.193 53.6599C109.96 52.054 107.922 48.3331 108.902 42.8887C109.255 40.8912 113.684 32.3134 126.343 36.3085C126.421 36.191 126.421 36.1519 126.5 36.0735C124.148 34.546 119.994 34.5852 118.896 34.6635C118.896 28.8275 118.896 21.8948 118.896 16.098C118.896 9.98779 116.427 9.08693 113.488 9.08693C109.137 9.08693 104.944 16.2546 109.608 18.683C110.47 19.3881 112.665 19.3881 113.292 18.8789C114.076 18.448 115.095 16.098 112.351 15.3538C112.43 15.1188 112.665 15.0013 112.704 14.9229C115.487 14.4921 115.722 17.1555 115.447 18.0955C114.938 19.9364 112.116 20.3673 111.685 20.4064C109.451 20.7198 106.903 19.1922 106.041 16.098C104.865 11.907 108.55 9.51777 108.824 9.32193C113.409 6.22768 119.955 4.6218 122.698 0C124.07 1.44921 125.481 3.05509 126.421 5.28765C130.928 1.25337 137.395 0.156671 141.393 0C145.743 12.2595 141.158 15.1971 137.278 18.213C141.863 18.8789 145.704 21.5815 146.88 24.9107ZM136.023 5.24848C137.67 9.1261 136.376 12.4945 135.005 15.9021C136.69 14.0612 138.61 10.1053 137.709 5.7185L136.023 5.24848ZM134.495 5.601C138.61 14.2571 127.127 22.3256 127.519 22.0906C127.519 17.978 127.519 14.8054 127.519 10.4578C127.519 9.28277 127.362 8.22524 127.127 7.24604C127.088 7.08937 131.36 4.46513 133.868 4.97431C134.299 5.09181 134.299 5.17015 134.495 5.601ZM127.519 24.519C127.519 28.7492 127.519 32.3526 127.519 36.8177C129.165 37.6402 131.752 38.7369 135.044 41.792C135.553 41.322 137.043 40.147 137.866 39.5595C137.866 38.6978 137.866 31.2559 137.866 27.1825C137.866 19.9364 135.044 20.2889 134.495 20.1322C132.888 21.6206 127.362 24.754 127.519 24.519ZM119.915 41.2829C122.737 41.6354 127.205 42.8496 130.497 46.1788C130.928 45.7872 131.124 45.5521 131.595 45.1605C128.93 42.2229 123.168 41.0087 120.229 41.0087L119.915 41.2829Z" fill="white"/>
</svg>
