<svg width="201" height="55" viewBox="0 0 201 55" fill="none" xmlns="http://www.w3.org/2000/svg">
<path d="M42.8636 10.9667C42.2757 10.4575 41.0607 10.0658 38.7092 10.8492C36.7495 8.10744 35.6129 3.72064 35.1818 1.91892C35.1426 1.84058 35.1426 1.76225 35.1426 1.76225C35.1034 1.64474 34.9858 1.56641 34.8683 1.56641C29.9692 1.76225 26.1675 3.25063 22.2482 6.54073C21.3076 4.58233 19.9359 3.13312 18.5249 1.64474C18.4466 1.56641 18.3682 1.56641 18.2898 1.56641C18.2114 1.56641 18.133 1.60557 18.0938 1.68391C16.2518 4.6215 12.6069 6.30572 9.11871 7.95077C7.35504 8.77329 5.51299 9.63499 3.90609 10.6534C3.90609 10.6534 3.90609 10.6534 3.8669 10.6534L3.82771 10.6925C2.88708 11.3584 -0.16994 13.7868 0.927453 17.5469C1.86808 20.7978 4.68995 22.2079 7.00231 21.9337C7.82536 21.8162 10.5296 21.3462 11.0783 19.4661C11.2743 18.8786 11.2743 17.6252 10.5296 16.7635C10.1377 16.2935 9.35387 15.8235 7.98213 16.0194C7.90374 16.0194 7.82536 16.0977 7.78616 16.176L7.74697 16.2152C7.66858 16.2935 7.51181 16.411 7.43343 16.6069C7.39423 16.6852 7.39423 16.7635 7.43343 16.8419C7.47262 16.9202 7.55101 16.9594 7.62939 16.9985C8.60921 17.2727 9.1971 17.7427 9.27549 18.3694C9.35387 19.0353 8.88356 19.7403 8.57002 19.897C8.57002 19.897 8.53082 19.897 8.53082 19.9361C8.02132 20.3278 5.90491 20.367 5.08187 19.7403L5.04268 19.7011C2.92628 18.6436 3.00466 16.8027 3.23982 15.7843C3.78851 13.4734 6.25765 10.8884 8.92275 10.8884C10.1377 10.8884 11.6662 11.0059 12.7244 12.0634C13.7434 13.0818 14.2138 14.8443 14.2138 17.4294V34.4283C14.2138 34.5849 14.3313 34.7024 14.4489 34.7024C14.6057 34.7024 14.9976 34.7808 15.5855 34.8983C13.038 34.6241 10.7648 35.0158 8.80517 36.0733C5.4738 37.875 4.25882 41.0085 4.10205 41.9877C3.3182 47.2361 5.16026 51.1529 9.51064 53.3855C9.54983 53.3855 9.54983 53.4247 9.58902 53.4247C10.608 53.6205 11.5487 53.738 12.3717 53.738C16.4085 53.738 18.3682 51.6229 19.5048 49.8996C19.544 49.8212 19.544 49.7821 19.544 49.7037C19.544 49.6254 19.5048 49.5862 19.4264 49.5079L18.3682 48.8029C18.2898 48.7637 18.2114 48.7637 18.133 48.7637C18.0546 48.8029 17.9762 48.842 17.9762 48.9204C16.4085 52.1713 13.6651 52.4063 12.1757 52.2888C9.82418 52.0538 7.90374 50.7221 7.62939 49.6254C7.31585 47.3928 7.86455 45.7869 9.15791 44.9252C10.7648 43.8677 12.9988 44.2202 14.4489 45.0819C15.5855 45.7869 16.1734 46.7661 16.0558 47.7845C16.0558 47.902 16.095 47.9803 16.1734 48.0587C16.2518 48.0978 16.3693 48.137 16.4477 48.0587C18.9561 46.727 21.1509 45.9828 23.3456 45.8261C23.4632 45.8261 23.5808 45.7478 23.5808 45.6303C24.7174 41.361 27.4609 39.5201 29.4597 39.9509C29.8124 40.1468 29.9692 40.3818 29.9692 40.6559C29.9692 41.1651 29.3813 41.7918 28.6758 42.1443C28.5975 42.1835 28.5583 42.2227 28.5191 42.301C28.4799 42.3793 28.5191 42.4577 28.5583 42.536L28.8326 43.006C28.911 43.1235 29.0286 43.1627 29.1461 43.1235C30.7138 42.771 31.6545 41.1651 31.6545 39.8334C31.6545 38.6192 30.9882 37.7575 29.8516 37.5225C27.2649 36.935 25.854 38.3059 25.1485 39.1284C25.1093 39.0892 25.0309 39.0109 24.9917 38.9717C24.5998 38.58 24.1295 38.11 23.62 37.64V12.0242C23.62 10.9275 23.4632 9.90916 23.2281 8.92997C23.3456 8.65579 24.2471 7.48076 26.1675 7.08908C26.2851 7.04991 26.3243 7.08908 26.3635 7.08908C26.3635 7.08908 26.4419 7.16741 26.481 7.40242C26.9906 13.1993 30.3219 17.4686 31.1058 17.8994C31.3017 17.9777 31.4193 17.9777 31.4977 17.9386C31.6937 17.8211 32.0072 17.5469 32.6343 16.9594C34.6331 15.1577 39.2578 11.0059 41.1783 12.6901C41.2567 12.8468 41.3743 13.2384 41.2175 13.5909C41.0607 13.9435 40.6296 14.1785 39.9241 14.2568C39.8457 14.2568 39.7673 14.3351 39.7282 14.3743C39.689 14.4526 39.689 14.531 39.689 14.6093L39.8065 14.9618C39.8457 15.0793 39.8849 15.1968 39.9241 15.2752C39.9633 15.3927 40.0809 15.471 40.2377 15.471C42.1973 15.1577 43.4515 14.296 43.6474 13.1209C43.7258 12.2592 43.4906 11.4759 42.8636 10.9667ZM33.2222 13.9435C32.9478 14.1785 32.5951 14.4918 32.3991 14.6876C30.6747 13.1601 29.4205 10.7317 28.9894 8.34245C29.8124 11.0842 32.0464 13.1601 33.2222 13.9435ZM11.9406 41.7918C11.4311 41.7918 10.9216 41.831 10.4121 41.9093C12.9204 41.126 16.3693 41.1651 18.9953 44.2202C18.5641 44.3377 18.0546 44.4944 17.6627 44.6902C16.7221 42.8885 14.4881 41.7918 11.9406 41.7918Z" fill="white"/>
<path fill-rule="evenodd" clip-rule="evenodd" d="M69.2399 27.4572C69.3182 27.5747 69.4358 27.6139 69.5534 27.5747C69.9061 27.4572 70.7292 26.9872 71.1995 26.7522C72.4929 27.183 73.0807 27.8881 73.0807 29.1023V36.3091C73.0807 36.3483 73.0807 36.4266 73.1199 36.4658C74.7268 38.8551 76.5689 40.5784 77.9406 40.931C77.9798 40.931 77.9798 40.931 78.019 40.931C78.0974 40.931 78.1758 40.8918 78.215 40.8526L78.4893 40.5393C79.3124 39.6384 80.6841 38.1109 82.2126 37.1317C82.3302 37.0533 82.3694 36.8967 82.3302 36.7792C82.291 36.74 82.2126 36.5442 82.095 36.3875C82.0167 36.2308 81.8991 36.035 81.8207 35.9175C81.7815 35.8 81.6639 35.7608 81.5072 35.7608C81.272 35.8 80.9585 35.9175 80.7233 36.035C80.1354 35.6825 79.5867 35.0558 79.3908 34.4683V31.9615H83.1924V36.3091C83.1924 36.3483 83.1924 36.3875 83.2316 36.4266C84.1331 38.0325 86.0535 40.1476 87.778 40.8918C87.8956 40.931 88.0131 40.931 88.0915 40.8526C89.816 39.2076 91.4229 37.7192 93.3825 36.7008C93.5001 36.6225 93.5785 36.4658 93.5001 36.3483C93.4217 36.1525 93.3041 35.9175 93.2258 35.6825C93.1082 35.4474 93.0298 35.2516 92.9906 35.1341C92.9514 35.0558 92.9122 35.0166 92.8338 34.9774C92.7554 34.9383 92.6771 34.9383 92.5987 34.9774C91.9324 35.33 91.3445 35.7608 90.9526 35.9958C90.4431 35.8 89.5808 34.8208 89.5808 34.4683V26.243C89.5808 23.9321 88.1699 21.1512 85.4264 20.3287C85.3088 20.2895 85.1913 20.3287 85.1129 20.4462C83.2708 23.3446 81.7031 24.9896 79.6259 26.2038C79.5475 26.243 79.5083 26.3213 79.5083 26.3605C79.5083 26.4388 79.5083 26.5172 79.5475 26.5563L79.5867 26.6347C79.7043 26.8305 79.9395 27.183 80.0178 27.3789C80.057 27.4572 80.1354 27.4964 80.1746 27.5355C80.253 27.5747 80.3314 27.5355 80.4098 27.4964C80.8409 27.2614 81.1152 27.1047 81.6247 26.6738C82.3694 26.7522 83.1924 28.0056 83.1924 29.0631V30.0031H79.3908V26.243C79.3908 23.0704 76.6081 20.3287 75.2363 20.3287C75.1579 20.3287 75.0796 20.3678 75.0012 20.4462C72.9632 23.3054 70.69 25.4205 68.8087 26.2822C68.7304 26.3213 68.6912 26.3605 68.652 26.4388C68.6128 26.5172 68.652 26.5955 68.6912 26.6738L69.2399 27.4572Z" fill="white"/>
<path fill-rule="evenodd" clip-rule="evenodd" d="M197.086 20.3285C197.008 20.2894 196.929 20.3285 196.89 20.3285C194.264 21.6994 192.344 23.0311 190.815 24.4412C190.11 22.1694 188.15 20.2894 186.935 20.2894C186.857 20.2894 186.778 20.3285 186.7 20.4069C185.054 22.6786 183.29 24.5195 181.644 25.577C180.351 23.6578 177.999 21.1902 173.884 20.2894C173.806 20.2894 173.688 20.2894 173.649 20.3677C171.533 22.4044 168.867 23.932 165.693 24.9112C165.614 24.9504 165.536 24.9895 165.497 25.107C165.458 25.1854 165.497 25.3029 165.536 25.3812C166.242 26.2429 166.673 27.1046 166.673 28.8671V34.1156C163.341 33.959 160.363 35.1732 158.795 35.9957C158.756 35.9957 158.717 35.9565 158.677 35.9565C158.168 35.7999 157.031 35.4082 156.326 34.3898V31.9222C157.658 31.0214 159.304 30.6297 161.734 30.238C161.774 30.238 161.852 30.1988 161.852 30.1597C162.557 29.533 164.674 28.0446 165.693 27.5354C165.771 27.4963 165.81 27.4571 165.85 27.3788C165.889 27.3004 165.85 27.2221 165.81 27.1438L165.027 25.7729L164.909 25.6162C163.655 23.697 161.264 21.1902 157.11 20.2894C157.031 20.2894 156.914 20.2894 156.874 20.3677C154.758 22.4044 152.093 23.932 148.918 24.9112C148.84 24.9504 148.762 24.9895 148.722 25.107C148.722 25.1462 148.722 25.2245 148.722 25.2637L147.899 25.4987C146.724 22.3261 142.844 19.7802 138.258 19.1535C142.138 16.2943 146.724 13.5133 142.373 1.84131C138.376 1.99798 131.909 3.01634 127.402 6.8548C126.461 4.73973 125.011 3.21218 123.678 1.84131C120.896 6.22811 114.35 7.75566 109.726 10.6932C109.451 10.8891 105.806 13.1608 106.943 17.1559C107.805 20.0935 110.314 21.5427 112.587 21.2294C113.018 21.1902 115.84 20.7594 116.349 19.036C116.624 18.1351 116.388 15.5892 113.606 16.0201C113.567 16.0984 113.371 16.2159 113.253 16.4509C115.997 17.1559 114.978 19.3885 114.194 19.8194C113.567 20.3285 111.372 20.3285 110.47 19.6235C105.806 17.3126 110 10.5366 114.35 10.4974C117.29 10.4974 119.759 11.3591 119.759 17.1559C119.759 22.6786 119.759 29.2588 119.759 34.8207C120.856 34.7423 125.05 34.7032 127.362 36.1524C127.323 36.2307 127.284 36.2699 127.206 36.3482C114.546 32.5489 110.118 40.6958 109.765 42.5759C108.785 47.7461 110.862 51.3103 115.056 52.8379C116.232 53.2687 117.251 53.4254 118.191 53.4254C121.366 53.4254 123.286 51.3103 124.501 49.4694L123.482 48.8036C120.66 54.6004 114.272 51.3103 113.763 49.1561C111.685 40.2258 124.423 40.3825 132.497 49.5086C134.143 47.8636 144.137 38.8158 148.174 38.3458C148.174 37.4057 148.174 31.0997 148.174 27.4963C148.174 27.1438 148.135 26.7912 148.056 26.4387L149.193 26.1254C149.585 26.7912 149.781 27.5746 149.781 28.828V36.2699C149.781 36.309 149.781 36.309 149.781 36.3482C150.173 37.5624 153.582 40.5392 157.737 40.8525C157.815 40.8525 157.854 40.8525 157.933 40.8133C158.285 40.5783 158.599 40.265 158.952 39.9908C160.755 38.5024 162.989 36.6615 166.516 36.544C167.182 37.8758 170.435 40.5392 174.394 40.8525C174.472 40.8525 174.511 40.8525 174.59 40.8133C174.825 40.6175 175.099 40.4217 175.373 40.2258C177.294 38.7374 179.685 36.8574 182.702 36.544C182.859 36.544 182.977 36.3874 182.938 36.2307C182.898 35.7215 182.781 34.7815 182.742 34.3898C182.742 34.2331 182.624 34.1548 182.467 34.1548C179.058 34.1548 175.883 35.6432 175.256 35.9565C175.217 35.9565 175.177 35.9174 175.138 35.9174C174.629 35.7607 173.492 35.369 172.787 34.3506V31.8831C174.119 30.9822 175.805 30.5905 178.195 30.1988C178.234 30.1988 178.313 30.1597 178.313 30.1205C179.018 29.4938 181.135 28.0054 182.154 27.4963C182.232 27.4571 182.271 27.4179 182.311 27.3396C182.35 27.2613 182.311 27.1829 182.271 27.1046L182.154 26.9087C182.311 26.8304 182.467 26.7521 182.585 26.6737C183.878 27.1046 184.466 27.8096 184.466 29.0238V36.2307C184.466 36.2699 184.466 36.3482 184.505 36.3874C186.112 38.7766 187.954 40.5 189.326 40.8525C189.365 40.8525 189.365 40.8525 189.404 40.8525C189.483 40.8525 189.561 40.8133 189.6 40.7742L189.875 40.4608C190.698 39.56 192.069 38.0324 193.598 37.0532C193.716 36.9749 193.755 36.8182 193.716 36.7007C193.676 36.6615 193.598 36.4657 193.48 36.309C193.402 36.1524 193.284 35.9565 193.206 35.839C193.167 35.7215 193.01 35.6824 192.893 35.6824C192.657 35.7215 192.344 35.839 192.109 35.9565C191.521 35.604 190.972 34.9773 190.776 34.3898V26.3604C191.05 26.1254 191.874 25.4204 192.893 25.4595C193.402 25.4595 194.186 26.8696 194.499 28.3971C194.499 28.4755 194.578 28.5538 194.656 28.593C194.735 28.6321 194.852 28.6321 194.931 28.593C196.106 27.8488 199.634 26.7521 200.731 26.5171C200.849 26.4779 200.966 26.3604 200.966 26.2429C201.241 23.932 199.83 21.1511 197.086 20.3285ZM138.846 7.28564C139.708 11.4374 137.788 15.1976 136.102 16.9601C137.474 13.7092 138.767 10.5366 137.121 6.8548L138.846 7.28564ZM134.966 6.61979C135.397 6.69812 135.397 6.77646 135.593 7.16814C139.591 15.1584 128.93 22.5611 128.617 22.8353C128.617 18.9185 128.617 15.9026 128.617 11.7899C128.617 10.6541 128.46 9.67488 128.225 8.77402C128.185 8.61735 132.457 6.14977 134.966 6.61979ZM131.595 45.7485C128.303 42.5759 123.835 41.44 121.013 41.0875L121.327 40.8133C124.266 40.8133 130.028 41.9492 132.693 44.7693C132.262 45.161 132.066 45.3568 131.595 45.7485ZM138.963 39.4816C138.14 40.03 136.651 41.1659 136.142 41.5967C132.81 38.6983 130.224 37.6407 128.577 36.8574C128.577 32.5881 128.577 29.1805 128.577 25.1854C128.421 25.4204 133.947 22.4436 135.554 21.0727C136.102 21.2294 138.924 20.8769 138.924 27.7704C138.963 31.5697 138.963 38.6591 138.963 39.4816ZM142.412 37.6016C141.903 37.7974 141.472 37.9933 140.845 38.3849C140.884 34.6248 140.884 29.3372 140.884 26.2037C140.884 24.7153 140.335 23.6578 140.022 23.3053C140.139 23.2661 140.178 23.227 140.257 23.227C143.353 25.7337 142.138 35.1732 142.412 37.6016ZM173.022 25.8904C175.217 26.2429 176.236 27.6921 176.745 28.593C175.06 28.9063 174.119 29.2588 173.022 29.768V29.1805C173.061 27.9663 173.061 26.5954 173.022 25.8904ZM156.365 25.8904C158.56 26.2429 159.579 27.6921 160.088 28.593C158.403 28.9063 157.462 29.2588 156.365 29.768V29.1805C156.404 27.9663 156.365 26.5954 156.365 25.8904Z" fill="white"/>
<path fill-rule="evenodd" clip-rule="evenodd" d="M103.808 46.9629C103.494 47.2762 103.534 47.5896 103.69 47.7854C104.278 48.3337 104.592 49.0779 104.592 49.8613C104.592 50.8797 104.239 51.6238 103.494 52.1722C99.3792 55.0314 85.1522 49.7438 78.3327 47.1979C76.8042 46.6104 75.55 46.1795 74.8054 45.9445C74.0999 45.7095 73.5512 45.5528 73.1593 45.4353C64.3801 42.8894 55.4442 42.1452 48.5855 43.4378C45.7244 43.9861 41.9619 45.3962 39.532 46.8454C38.8265 46.1404 37.8859 45.0828 37.8859 42.1452V39.0118C38.9049 39.2468 40.9429 39.9518 41.7268 40.8135C41.766 40.8918 41.8444 40.931 41.9619 40.8919C42.0403 40.8919 42.1187 40.8527 42.1579 40.7743C43.2553 39.3643 45.0582 37.4059 47.8016 36.7009C47.9192 36.6617 47.9976 36.5442 47.9976 36.4267V27.0264L48.272 27.4573C48.3503 27.5748 48.4679 27.6139 48.5855 27.5748C48.9382 27.4573 49.7613 26.9873 50.2316 26.7523C51.5249 27.1831 52.1128 27.8881 52.1128 29.1023V36.3092C52.1128 36.3484 52.1128 36.4267 52.152 36.4659C53.7589 38.8551 55.601 40.5785 56.9727 40.931C57.0119 40.931 57.0119 40.931 57.0511 40.931C57.1295 40.931 57.2079 40.8919 57.2471 40.8527C58.1093 39.9127 60.696 37.7584 62.4205 36.7009C63.3611 38.2676 65.2032 40.226 66.8493 40.931C66.9668 40.9702 67.0844 40.9702 67.1628 40.8919C68.9265 39.2076 70.5334 37.7193 72.5714 36.6617C72.6498 36.6226 72.689 36.5834 72.7282 36.5051C72.7674 36.4267 72.7282 36.3484 72.689 36.27C72.493 35.9567 72.1403 35.33 72.0619 35.1342C72.0227 35.0558 71.9835 35.0167 71.9051 34.9775C71.8267 34.9383 71.7483 34.9775 71.67 35.0167C71.0037 35.3692 70.4158 35.8 70.0239 36.035C69.5144 35.8392 68.6521 34.86 68.6521 34.5075V26.2431C68.6521 23.9322 67.2412 21.1512 64.4977 20.3287C64.3801 20.2896 64.2626 20.3287 64.1842 20.4462C62.3421 23.3446 60.7744 24.9897 58.6972 26.2039C58.6188 26.2431 58.5796 26.3214 58.5796 26.3606C58.5796 26.4389 58.5796 26.5172 58.6188 26.5564L58.658 26.6347C58.7756 26.8306 59.0107 27.1831 59.0891 27.3789C59.1283 27.4573 59.2067 27.4964 59.2459 27.5356C59.3243 27.5748 59.4027 27.5356 59.4811 27.4964C59.9122 27.2614 60.1865 27.1048 60.696 26.6739C61.4407 26.7522 62.2637 28.0056 62.2637 29.0632V34.3508C61.4799 34.7817 60.3825 35.4475 59.873 35.8784C59.3243 35.5259 58.7364 35.1342 58.5012 34.3508V26.2431C58.5012 23.0705 55.7186 20.3287 54.3468 20.3287C54.2684 20.3287 54.19 20.3679 54.1117 20.4462C52.1128 23.2271 49.918 25.303 48.0368 26.2039V25.538C48.0368 23.658 45.4893 20.3287 42.9418 20.3287C42.8634 20.3287 42.8242 20.3287 42.785 20.3679C42.2755 20.7204 41.8052 21.1121 41.3349 21.4646C40.0807 22.4438 38.9833 23.3055 37.8467 23.7363C37.494 22.4438 35.6519 20.2896 34.7505 20.2896C34.6721 20.2896 34.5937 20.3287 34.5153 20.4071C32.0462 23.4621 29.0676 25.7731 25.3835 27.4573C25.3051 27.4964 25.2659 27.5356 25.2267 27.6139C25.1875 27.6923 25.2267 27.7706 25.2659 27.8489L25.8146 28.789C25.893 28.9065 26.0105 28.9457 26.1281 28.9065C26.8728 28.7106 28.2837 28.2406 29.6163 27.1439C30.9488 27.6923 31.5367 28.5931 31.5367 30.0032V45.592C31.5367 48.6471 33.6531 51.7022 34.8289 53.3472L35.0248 53.6214C35.064 53.6997 35.1424 53.7389 35.26 53.7389C35.3384 53.7389 35.4168 53.6997 35.4952 53.6214C39.1793 49.1563 43.7256 46.532 49.8397 45.3962C56.8943 44.0645 64.8112 44.5736 72.7674 46.8845C73.0809 46.9629 73.6296 47.1587 74.3743 47.3546H74.4134C75.0405 47.5504 76.0987 47.9421 77.4313 48.4121C83.271 50.5272 93.8922 54.3656 100.908 54.3656C103.024 54.3656 104.788 54.0131 106.003 53.1514C107.178 52.3289 107.766 51.1147 107.766 49.5088C107.766 48.2946 107.257 47.1587 106.395 46.3362C105.846 45.9445 104.278 46.4929 103.808 46.9629ZM41.6484 27.6531V36.3875C40.1591 35.8392 38.9441 35.6825 37.8467 35.565V26.6347C38.6306 26.3606 39.6496 25.9689 40.3942 25.4597C41.2565 25.9689 41.6484 26.9481 41.6484 27.6531Z" fill="white"/>
<path fill-rule="evenodd" clip-rule="evenodd" d="M114.468 36.3483C114.389 36.1525 114.272 35.9175 114.194 35.6825C114.076 35.4474 113.998 35.2516 113.958 35.1341C113.919 35.0558 113.88 35.0166 113.802 34.9774C113.723 34.9383 113.645 34.9383 113.566 34.9774C112.9 35.33 112.312 35.7608 111.92 35.9958C111.411 35.8 110.549 34.8208 110.549 34.4683V26.243C110.549 23.9321 109.138 21.1512 106.394 20.3287C106.277 20.2895 106.159 20.3287 106.081 20.4462C104.239 23.3446 102.671 24.9896 100.594 26.2038C100.515 26.243 100.476 26.3213 100.476 26.3605C100.476 26.4388 100.476 26.5172 100.515 26.5563L100.554 26.6347C100.672 26.8305 100.907 27.183 100.986 27.3789C101.025 27.4572 101.103 27.4964 101.142 27.5355C101.221 27.5747 101.299 27.5355 101.378 27.4964C101.809 27.2614 102.083 27.1047 102.593 26.6738C103.337 26.7522 104.16 28.0056 104.16 29.0631V30.0031H100.359V26.243C100.359 23.0704 97.5759 20.3287 96.2041 20.3287C96.1257 20.3287 96.0473 20.3678 95.9689 20.4462C93.9309 23.3054 91.6578 25.4205 89.7765 26.2822C89.6981 26.3213 89.6589 26.3605 89.6198 26.4388C89.5806 26.5172 89.6198 26.5955 89.6589 26.6738L90.2076 27.4964C90.286 27.6139 90.4036 27.653 90.5212 27.6139C90.8739 27.4964 91.697 27.0264 92.1673 26.7914C93.4606 27.2222 94.0485 27.9272 94.0485 29.1414V36.3483C94.0485 36.3875 94.0485 36.4658 94.0877 36.505C95.6946 38.8942 97.5367 40.6176 98.9084 40.9701C98.9476 40.9701 98.9476 40.9701 98.9868 40.9701C99.0652 40.9701 99.1436 40.931 99.1827 40.8918L99.4571 40.5784C100.28 39.6776 101.652 38.15 103.18 37.1708C103.298 37.0925 103.337 36.9358 103.298 36.8183C103.259 36.7792 103.18 36.5833 103.063 36.4266C102.984 36.27 102.867 36.0741 102.788 35.9566C102.749 35.8391 102.632 35.8 102.475 35.8C102.24 35.8391 101.926 35.9566 101.691 36.0741C101.103 35.7216 100.554 35.0949 100.359 34.5074V32.0007H104.16V36.3483C104.16 36.3875 104.16 36.4266 104.199 36.4658C105.101 38.0717 107.021 40.1868 108.746 40.931C108.863 40.9701 108.981 40.9701 109.059 40.8918C110.784 39.2467 112.391 37.7584 114.35 36.74C114.468 36.6225 114.507 36.4658 114.468 36.3483Z" fill="white"/>
<path fill-rule="evenodd" clip-rule="evenodd" d="M7.27629 43.0847C7.27629 43.0847 7.2371 42.928 7.2371 42.8105C9.863 41.2046 14.9972 40.1079 18.4854 44.7689C17.8583 44.8864 16.9961 45.1997 16.5258 45.5131C15.3108 42.4971 11.1172 41.4396 7.27629 43.0847ZM3.04349 9.55696C7.78579 6.3452 14.4877 4.70015 17.3096 0C18.6814 1.48838 20.1707 3.13343 21.1505 5.40517C25.736 1.25337 29.7729 0.156672 33.8489 0C33.8881 0.0783358 35.0639 6.30603 37.5722 9.79197C41.6482 8.30359 42.5105 10.3795 42.2753 11.8287C42.0793 12.9646 40.8644 13.7871 39.1007 14.0613C39.0615 13.9438 38.9439 13.6696 38.8656 13.3562C40.9428 13.0821 40.4725 11.5154 40.2765 11.202C37.6506 8.6561 31.0662 16.1372 30.2432 16.6072C29.8513 16.8422 26.1671 12.1812 25.6184 5.79685C25.5792 5.32683 25.4225 5.09182 24.9914 5.17016C22.7966 5.64017 21.7776 7.24606 21.8168 7.40273C22.0519 8.38192 22.2087 9.47863 22.2087 10.6537C22.2087 19.6623 22.2087 28.6709 22.2087 37.6795C22.9142 38.3453 23.502 39.0112 24.0507 39.5596C24.717 38.737 25.9712 37.092 28.6755 37.7187C31.2622 38.3062 30.3999 42.4971 27.97 43.0455L27.6957 42.5363C28.9498 41.9488 29.8513 40.4212 28.4795 39.6771C26.4807 39.1679 23.502 41.0088 22.2479 45.8656C19.8963 46.0614 17.6623 46.8839 15.2716 48.2548C15.7419 43.633 5.15989 41.5179 6.33567 50.2132C7.04114 52.9158 14.331 55.8534 17.2312 49.5865L18.2894 50.3307C16.6825 52.8766 14.0566 55.07 8.64803 53.9342C4.572 51.7408 2.57318 47.824 3.39622 42.2621C3.74896 40.0687 8.02095 31.0601 20.8761 36.9745C20.9545 36.857 20.9937 36.7786 21.0329 36.7003C18.211 35.0552 13.8998 34.3502 13.4295 34.3111C13.4295 28.3575 13.4295 22.404 13.4295 16.4505C13.4295 10.2228 10.882 9.28279 7.86418 9.28279C3.39622 9.28279 -0.87578 16.6072 3.90572 19.0748C4.80715 19.7798 7.04114 19.8189 7.70741 19.2706C8.53046 18.8397 9.54947 16.4505 6.7276 15.6672C6.84517 15.4321 7.04114 15.3146 7.08033 15.2363C9.94139 14.7663 10.1374 17.508 9.86301 18.4872C9.3535 20.3673 6.45324 20.7981 5.98293 20.8765C3.67057 21.1898 1.12305 19.6231 0.221617 16.4897C-0.954163 12.1812 2.92591 9.6353 3.04349 9.55696ZM27.5389 4.73931C27.4213 8.22525 29.185 11.9462 31.3798 13.8654C31.4973 13.7088 32.3596 12.8862 32.7123 12.6512C31.4973 11.9854 28.0876 8.85194 27.97 4.85682L27.5389 4.73931Z" fill="#6A3030"/>
<path fill-rule="evenodd" clip-rule="evenodd" d="M82.4083 30.0028V28.7103C82.4083 27.4569 81.4677 25.8902 80.4486 25.8902C79.8999 26.3602 79.6256 26.5169 79.1553 26.791C79.0769 26.556 78.8026 26.1252 78.6458 25.8902C80.8406 24.5193 82.3691 22.7959 84.2111 19.7017C86.7587 20.5242 88.1696 23.2659 88.1696 25.6552V34.3113C88.1696 34.8988 89.3062 36.113 89.8549 36.2305C90.286 35.9172 90.9131 35.4863 91.5794 35.0946C91.6969 35.3688 91.9713 35.9955 92.1281 36.3872C90.09 37.523 88.4439 39.1289 86.7978 40.8131C85.2301 40.1081 83.3097 37.9931 82.3691 36.2305V31.3737H78.0187V34.3504C78.2147 35.0946 78.9593 35.9172 79.6256 36.2697C79.7824 36.1522 80.2135 35.9955 80.4486 35.9563C80.5662 36.2305 80.8798 36.7397 80.919 36.8572C79.1553 38.0714 77.6268 39.9906 76.8821 40.8131C75.5104 40.4606 73.7075 38.5806 72.2182 36.2305C72.2182 32.2745 72.2182 32.6271 72.2182 28.6711C72.2182 27.3002 71.6303 26.3994 70.0626 25.8902C69.4355 26.2819 68.6516 26.7127 68.3773 26.791C68.2989 26.6344 67.9462 26.086 67.8286 25.9294C69.5531 25.1068 71.8655 23.0309 74.1386 19.7017C75.3536 19.7017 78.0187 22.4826 78.0187 25.6552V30.0028H82.4083Z" fill="#6A3030"/>
<path fill-rule="evenodd" clip-rule="evenodd" d="M46.939 25.9294C48.6634 25.1068 50.9758 23.0309 53.249 19.7017C54.4639 19.7017 57.1291 22.4826 57.1291 25.6552V34.3113C57.4426 35.3296 58.1872 35.7997 58.8143 36.2305C59.1671 35.8388 60.4212 35.0163 61.4402 34.4288C61.4402 32.5096 61.4402 30.6295 61.4402 28.7103C61.4402 27.4569 60.4996 25.8902 59.4806 25.8902C58.9319 26.3602 58.6576 26.5169 58.1872 26.791C58.1089 26.556 57.8345 26.1252 57.6777 25.8902C59.8725 24.5193 61.401 22.7959 63.2431 19.7017C65.7906 20.5242 67.2016 23.2659 67.2016 25.6552V34.3113C67.2016 34.8988 68.3381 36.113 68.8868 36.2305C69.318 35.9172 69.945 35.4863 70.6113 35.0946C70.7289 35.3296 71.0816 35.9955 71.2776 36.3088C69.2004 37.4447 67.5151 39.0898 65.8298 40.774C64.2621 40.069 62.3417 37.9539 61.401 36.1913C59.6766 37.2097 56.8547 39.7164 55.9533 40.774C54.5815 40.4215 52.7787 38.5414 51.2893 36.1913C51.2893 32.2354 51.2893 32.5879 51.2893 28.6319C51.2893 27.2611 50.7015 26.3602 49.1337 25.851C48.5067 26.2427 47.7228 26.6735 47.4485 26.7519C47.3701 26.6344 47.0565 26.086 46.939 25.9294Z" fill="#6A3030"/>
<path fill-rule="evenodd" clip-rule="evenodd" d="M189.639 25.6551C189.914 25.3809 190.894 24.48 192.03 24.5584C192.853 24.5584 193.637 26.4776 193.872 27.8876C195.048 27.1043 198.575 25.8901 199.751 25.6942C199.751 23.305 198.34 20.5632 195.793 19.7407C192.461 21.5816 190.658 23.1092 189.483 24.4017C188.934 21.8166 186.818 19.7407 185.759 19.7407C183.878 22.4825 181.997 24.3625 180.39 25.4201L180.351 25.3809L180.272 25.2242C178.94 23.07 176.549 20.6416 172.669 19.7407C169.494 22.9917 165.732 24.2059 164.595 24.5975C165.301 25.4984 165.81 26.4384 165.81 28.4752V34.3112C161.852 33.9978 158.364 35.9171 157.658 36.3087C157.501 36.1912 155.816 35.8387 154.915 34.3895V31.5694C156.286 30.5119 158.011 30.081 160.558 29.6502C161.264 28.9843 163.42 27.4176 164.439 26.8693L163.694 25.4201L163.616 25.2634C162.283 23.1092 159.892 20.6808 156.012 19.7799C152.838 23.0308 149.075 24.245 147.938 24.6367C148.644 25.5376 149.153 26.4776 149.153 28.5143V36.3087C149.506 37.4446 152.759 40.5389 156.835 40.8522C158.873 39.2463 161.342 36.3871 165.81 36.3087C166.163 37.4446 169.416 40.5389 173.492 40.8522C175.53 39.2463 178.234 36.7004 181.723 36.2696C181.683 35.7604 181.566 34.7812 181.527 34.3503C178.195 34.3503 174.981 35.9171 174.315 36.2696C174.158 36.1521 172.473 35.7995 171.572 34.3503V31.5303C172.943 30.4727 174.668 30.0419 177.215 29.611C177.921 28.9452 180.076 27.3785 181.095 26.8301L180.86 26.3601C181.135 26.2034 181.448 26.0076 181.644 25.9292C183.251 26.4384 183.8 27.3785 183.8 28.7102C183.8 32.6661 183.8 32.3136 183.8 36.2696C185.289 38.6196 187.092 40.4605 188.464 40.8522C189.208 39.9905 190.737 38.0713 192.5 36.8962C192.461 36.7787 192.148 36.2696 192.03 35.9954C191.756 36.0346 191.364 36.1912 191.207 36.3087C190.541 35.9171 189.796 35.1337 189.6 34.3895V25.6551H189.639ZM154.993 29.8069V28.7102C154.993 27.4568 154.993 25.5376 154.954 24.9501C157.854 25.2634 158.912 27.3785 159.422 28.3185C157.227 28.7493 156.286 29.141 154.993 29.8069ZM171.65 29.8069V28.7102C171.65 27.4568 171.65 25.5376 171.611 24.9501C174.511 25.2634 175.569 27.3785 176.079 28.3185C173.884 28.7493 172.943 29.141 171.65 29.8069Z" fill="#6A3030"/>
<path fill-rule="evenodd" clip-rule="evenodd" d="M106.316 50.2133C106.316 48.9991 105.807 47.8633 105.023 47.0799C104.631 46.6882 102.358 47.5891 102.789 48.1374C103.416 48.7641 103.769 49.5866 103.769 50.5267C103.769 59.8095 78.3327 48.1766 73.6688 46.6882C72.9242 46.4532 72.3755 46.2574 71.9835 46.1399C63.5571 43.5548 54.5036 42.6931 47.5665 44.064C44.8622 44.6123 40.9822 46.1007 38.4346 47.7458C37.69 47.0016 36.5534 45.8657 36.5534 42.4189C36.5534 40.9697 36.5534 41.3614 36.5534 38.7763C37.3764 38.933 39.9632 39.7555 40.9038 40.8522C41.8836 39.5205 43.7257 37.2488 46.7043 36.4654V24.9109C46.7043 23.07 44.196 19.7407 41.8836 19.7407C39.8848 21.2683 38.3171 22.8742 36.5534 23.4617C36.5534 22.3258 34.437 19.7407 33.6923 19.7407C30.7921 23.5792 27.4607 25.8117 24.4429 27.2218C24.6388 27.5351 24.8348 27.8876 24.9916 28.201C25.8538 27.966 27.2256 27.4568 28.4797 26.3209C29.8907 26.8693 30.7529 27.8876 30.7529 29.6894C30.7529 35.9954 30.7529 39.9513 30.7529 46.0615C30.7529 49.3908 33.1436 52.7592 34.1627 54.326C37.9643 49.43 42.6675 46.7274 48.6247 45.5524C55.4051 44.2206 63.4004 44.6123 71.67 47.1582C71.9835 47.2366 72.5714 47.4324 73.3161 47.7066C78.176 49.195 106.316 61.6503 106.316 50.2133ZM36.5534 25.8509C37.4548 25.5376 38.5914 25.0676 39.3361 24.48C40.3551 25.0676 40.8646 26.2426 40.8646 27.1435C40.8646 30.3552 40.8646 33.567 40.8646 36.7396C39.2577 36.0737 37.9643 35.8387 36.5142 35.7212V25.8509H36.5534Z" fill="#6A3030"/>
<path fill-rule="evenodd" clip-rule="evenodd" d="M103.337 30.0028V28.7103C103.337 27.4569 102.397 25.8902 101.378 25.8902C100.829 26.3602 100.555 26.5169 100.084 26.791C100.006 26.556 99.7318 26.1252 99.575 25.8902C101.77 24.5193 103.298 22.7959 105.14 19.7017C107.688 20.5242 109.099 23.2659 109.099 25.6552V34.3113C109.099 34.8988 110.235 36.113 110.784 36.2305C111.215 35.9172 111.842 35.4863 112.509 35.0946C112.626 35.3688 112.9 35.9955 113.057 36.3872C111.019 37.523 109.373 39.1289 107.727 40.8131C106.159 40.1081 104.239 37.9931 103.298 36.2305V31.3737H98.9479V34.3504C99.1439 35.0946 99.8885 35.9172 100.555 36.2697C100.712 36.1522 101.143 35.9955 101.378 35.9563C101.495 36.2305 101.809 36.7397 101.848 36.8572C100.084 38.0714 98.556 39.9906 97.8113 40.8131C96.4396 40.4606 94.6367 38.5806 93.1474 36.2305C93.1474 32.2745 93.1474 32.6271 93.1474 28.6711C93.1474 27.3002 92.5595 26.3994 90.9918 25.8902C90.3647 26.2819 89.5808 26.7127 89.3065 26.791C89.2281 26.6344 88.8754 26.086 88.7578 25.9294C90.4823 25.1068 92.7947 23.0309 95.0678 19.7017C96.2828 19.7017 98.9479 22.4826 98.9479 25.6552V30.0028H103.337Z" fill="#6A3030"/>
<path fill-rule="evenodd" clip-rule="evenodd" d="M139.159 22.4824C139.081 22.4824 139.042 22.5215 138.924 22.5607C139.238 22.9524 139.786 24.0882 139.786 25.6158C139.786 28.9451 139.786 34.5069 139.747 38.4237C140.374 37.9928 140.805 37.797 141.315 37.6012C141.04 35.0552 142.216 25.1066 139.159 22.4824ZM146.88 24.9108L148.017 24.5583L149.31 25.3024L147.154 25.89C147.233 26.2425 147.272 26.6342 147.272 26.9867C147.272 30.786 147.272 37.4053 147.272 38.4237C143.235 38.9329 133.202 48.4115 131.595 50.1741C123.561 40.5779 110.823 40.4212 112.9 49.8215C113.41 52.0933 119.798 55.5792 122.62 49.4299L123.639 50.1349C122.424 52.0933 120.503 54.2867 117.329 54.2867C116.388 54.2867 115.369 54.0908 114.193 53.66C109.961 52.0541 107.923 48.3332 108.902 42.8888C109.255 40.8913 113.684 32.3135 126.343 36.3086C126.422 36.1911 126.422 36.1519 126.5 36.0736C124.148 34.5461 119.994 34.5852 118.897 34.6636C118.897 28.8276 118.897 21.8948 118.897 16.098C118.897 9.98781 116.427 9.08695 113.488 9.08695C109.138 9.08695 104.944 16.2547 109.608 18.6831C110.47 19.3881 112.665 19.3881 113.292 18.8789C114.076 18.4481 115.095 16.098 112.351 15.3538C112.43 15.1188 112.665 15.0013 112.704 14.923C115.487 14.4921 115.722 17.1555 115.448 18.0956C114.938 19.9364 112.116 20.3673 111.685 20.4065C109.451 20.7198 106.904 19.1923 106.041 16.098C104.866 11.907 108.55 9.51779 108.824 9.32195C113.41 6.22769 119.955 4.62181 122.698 0C124.07 1.44921 125.481 3.05509 126.422 5.28766C130.929 1.25337 137.396 0.156672 141.393 0C145.744 12.2595 141.158 15.1971 137.278 18.2131C141.863 18.8789 145.704 21.5815 146.88 24.9108ZM136.024 5.2485C137.67 9.12611 136.377 12.4946 135.005 15.9022C136.69 14.0613 138.61 10.1053 137.709 5.71851L136.024 5.2485ZM134.495 5.60101C138.61 14.2571 127.127 22.3257 127.519 22.0907C127.519 17.9781 127.519 14.8055 127.519 10.4578C127.519 9.28279 127.362 8.22525 127.127 7.24606C127.088 7.08939 131.36 4.46514 133.868 4.97432C134.299 5.09182 134.299 5.17016 134.495 5.60101ZM127.519 24.5191C127.519 28.7492 127.519 32.3527 127.519 36.8178C129.165 37.6403 131.752 38.737 135.044 41.7921C135.553 41.3221 137.043 40.1471 137.866 39.5596C137.866 38.6979 137.866 31.256 137.866 27.1825C137.866 19.9364 135.044 20.289 134.495 20.1323C132.888 21.6207 127.362 24.7541 127.519 24.5191ZM119.916 41.2829C122.737 41.6355 127.205 42.8497 130.498 46.1789C130.929 45.7872 131.125 45.5522 131.595 45.1606C128.93 42.223 123.169 41.0088 120.229 41.0088L119.916 41.2829Z" fill="#6A3030"/>
</svg>
